<!-- Generated by IcoMoon.io -->
<svg version="1.1" xmlns="http://www.w3.org/2000/svg" width="1024" height="1024" viewBox="0 0 1024 1024">
<title></title>
<g id="icomoon-ignore">
</g>
<path d="M599.893 955.733h-175.77c-27.017-0.683-50.176-10.684-69.239-29.747-16.913-16.896-26.88-36.625-29.611-58.59-0.639-4.224-1.005-9.1-1.007-14.061v-0.002c0-4.301 0.29-8.892 0.853-13.807v-395.793h-154.453c-9.408-0.049-17.015-7.686-17.015-17.101 0-4.693 1.89-8.944 4.95-12.034l341.332-341.332c3.086-3.091 7.353-5.004 12.066-5.004s8.98 1.912 12.066 5.004v0l340.326 340.326c4.38 3.131 7.201 8.199 7.201 13.926 0 9.426-7.641 17.067-17.067 17.067-0.006 0-0.011 0-0.017 0h-153.94v410.453c-0.649 27.46-10.598 51.115-29.525 70.741-19.985 19.354-43.639 29.286-70.741 29.969l-0.41-0.017zM211.866 409.6h130.321c9.426 0 17.067 7.641 17.067 17.067v0 413.867c0 0.023 0 0.051 0 0.078 0 0.7-0.043 1.39-0.128 2.068l0.008-0.081c-0.442 3.202-0.708 6.924-0.734 10.704v0.031c0 3.157 0.239 6.332 0.7 9.523 1.843 14.763 8.346 27.409 19.917 38.997 12.851 12.834 27.733 19.302 45.534 19.746h175.121c18.415-0.495 33.86-7.031 47.223-19.951 12.578-13.039 19.115-28.553 19.558-47.036v-427.093c0-9.426 7.641-17.067 17.067-17.067v0h129.468l-300.988-300.988-300.134 300.134z"></path>
</svg>
