<!-- Generated by IcoMoon.io -->
<svg version="1.1" xmlns="http://www.w3.org/2000/svg" width="1024" height="1024" viewBox="0 0 1024 1024">
<title></title>
<g id="icomoon-ignore">
</g>
<path d="M512.853 955.733c-0.005 0-0.011 0-0.018 0-4.707 0-8.968-1.911-12.048-5v0l-342.187-342.187c-3.087-3.088-4.997-7.354-4.997-12.066 0-9.424 7.639-17.065 17.063-17.067h153.6v-410.453c0.683-27.46 10.615-51.132 29.525-70.724 20.036-19.354 43.708-29.286 70.741-29.969h176.213c27.017 0.683 50.159 10.684 69.239 29.747 16.896 16.879 26.863 36.591 29.611 58.59 0.649 4.489 0.99 9.284 0.99 14.063 0 4.318-0.29 8.909-0.853 13.824v395.776h154.453c0.011 0 0.024 0 0.038 0 9.416 0 17.050 7.633 17.050 17.050 0 4.722-1.919 8.995-5.021 12.083l-341.334 341.334c-3.081 3.089-7.342 5.001-12.049 5.001-0.006 0-0.012 0-0.019 0h0.001zM211.866 613.547l300.988 300.988 300.134-300.134h-130.321c-9.426 0-17.067-7.641-17.067-17.067v0-413.867c0-0.7 0.051-1.417 0.137-2.116 0.461-3.806 0.717-7.373 0.717-10.684 0-3.174-0.239-6.366-0.683-9.557-1.843-14.763-8.346-27.409-19.917-38.963-12.851-12.834-27.75-19.302-45.534-19.746h-175.36c-18.057 0.461-33.57 6.98-47.019 19.968-12.561 13.022-19.081 28.535-19.541 47.019v427.093c0 9.426-7.641 17.067-17.067 17.067h-129.468z"></path>
</svg>
