<!-- Generated by IcoMoon.io -->
<svg version="1.1" xmlns="http://www.w3.org/2000/svg" width="1024" height="1024" viewBox="0 0 1024 1024">
<title></title>
<g id="icomoon-ignore">
</g>
<path d="M506.424 242.52c28.081 0 53.504 11.32 71.969 29.585s29.905 43.474 29.905 71.134v61.622c28.258 3.268 53.625 16.047 72.737 34.954l0.061 0.059c22.295 22.058 36.161 52.517 36.161 86.016v91.615c0 33.555-13.866 64.074-36.161 86.132-22.3 22.058-53.090 35.77-87.068 35.77h-175.2c-33.919 0-64.712-13.712-87.069-35.77-22.298-22.058-36.161-52.578-36.161-86.132v-91.615c0-33.499 13.863-63.958 36.161-86.016l0.060-0.059c19.112-18.907 44.478-31.686 72.675-34.954v-61.622c0-27.718 11.443-52.927 29.907-71.134s44.065-29.585 72.025-29.585zM506.424 517.367c-30.32 0-54.977 24.334-54.977 54.388s24.597 54.388 54.977 54.388c30.441 0 55.040-24.334 55.040-54.388s-24.599-54.388-55.040-54.388zM41.292 287.453v-160.415c0-11.263-9.26-20.425-20.645-20.425s-20.647 9.104-20.647 20.425v223.147c0 11.262 9.262 20.424 20.647 20.424h222.626c11.385 0 20.647-9.162 20.647-20.424s-9.262-20.425-20.647-20.425h-176.202c35.099-82.629 93.262-153.238 166.528-204.006 77.218-53.452 171.306-84.848 272.886-84.848 131.486 0 250.587 52.754 336.77 138.009s139.455 203.013 139.455 333.141c0 130.132-53.271 247.948-139.455 333.149-86.184 85.197-205.224 137.947-336.77 137.947-111.077 0-213.306-37.581-294.24-100.543-82.704-64.424-143.404-155.285-168.888-259.677-2.655-10.915-13.803-17.622-24.834-14.997s-17.814 13.652-15.16 24.567c27.666 113.496 93.556 212.294 183.398 282.145 88.012 68.506 199.091 109.354 319.724 109.354 142.871 0 272.296-57.302 365.973-149.969 93.617-92.611 151.543-220.695 151.543-362.031s-57.926-269.421-151.543-362.029c-93.677-92.608-223.102-149.971-365.973-149.971-110.192 0-212.421 34.138-296.482 92.375-71.613 49.659-129.955 116.766-168.711 195.078zM595.144 444.892h-177.32c-22.121 0.292-42.237 9.396-56.808 23.811-14.807 14.643-24.010 34.951-24.010 57.242v91.62c0 22.23 9.203 42.538 24.069 57.186 14.806 14.704 35.334 23.808 57.809 23.808h175.198c22.533 0 43.003-9.104 57.87-23.808 14.806-14.648 24.008-34.956 24.008-57.186v-91.62c0-22.291-9.202-42.538-24.008-57.242-14.569-14.415-34.686-23.519-56.809-23.811zM506.424 283.367c-16.635 0-31.795 6.769-42.707 17.623-10.972 10.854-17.815 25.793-17.815 42.248v60.807h121.045v-60.807c0-16.456-6.782-31.453-17.813-42.248-10.915-10.854-26.075-17.623-42.71-17.623z"></path>
</svg>
