<!-- Generated by IcoMoon.io -->
<svg version="1.1" xmlns="http://www.w3.org/2000/svg" width="1024" height="1024" viewBox="0 0 1024 1024">
<title></title>
<g id="icomoon-ignore">
</g>
<path d="M1002.81 144.43c-11.29-10.191-26.322-16.426-42.81-16.426-18.856 0-35.807 8.154-47.52 21.129l-0.050 0.056-530.87 589.81-272.3-272.3c-11.582-11.582-27.582-18.745-45.255-18.745-35.346 0-64 28.654-64 64 0 17.673 7.163 33.673 18.745 45.255v0l320 320c11.575 11.597 27.573 18.776 45.247 18.79h1.683c18.233-0.493 34.494-8.537 45.84-21.104l0.050-0.056 576-640c10.2-11.292 16.441-26.33 16.441-42.826 0-18.863-8.161-35.82-21.144-47.533l-0.057-0.050z"></path>
</svg>
