<!-- Generated by IcoMoon.io -->
<svg version="1.1" xmlns="http://www.w3.org/2000/svg" width="1117" height="1024" viewBox="0 0 1117 1024">
<title></title>
<g id="icomoon-ignore">
</g>
<path d="M123.438 386.677h51.847c9.139 20.309 21.852 38.691 37.494 54.273h0.117v0.058c30.698 30.581 72.293 50.186 118.399 52.639-24.781 25.795-45.285 55.906-60.166 88.995-63.037-10.040-118.927-41.607-159.878-86.835-43.645-48.263-70.184-112.222-70.184-182.368 0-75.281 30.639-143.501 80.143-192.813 49.504-49.371 117.99-79.833 193.623-79.833 46.34 0 90.045 11.438 128.183 31.688 35.852 18.908 66.902 45.46 90.98 77.382l-0.642 1.051-0.647 1.050-0.642 1.051-0.647 1.051-0.116 0.117-0.526 0.934-0.642 1.051-0.586 1.050-0.177 0.234-0.47 0.817-0.642 1.051-0.586 1.109-0.233 0.35-0.414 0.701-0.582 1.109-0.586 1.109-1.233 2.159-0.582 1.109c-19.395 36.357-31.753 76.974-35.389 120.042l-0.172 1.459-0.237 2.918-0.056 1.459-0.121 1.459-0.116 1.459-0.056 1.459v1.167l-0.061 1.284-0.061 1.459-0.056 1.226v0.234l-0.061 1.459-0.056 1.459v0.817l-0.061 0.642v1.459l-0.061 1.459v4.493c0 19.316 1.82 38.575 5.395 57.424l0.056 0.525 0.233 0.934 0.061 0.525 0.116 0.467 0.061 0.467 0.232 0.934 0.116 0.466 0.061 0.525 0.116 0.466 0.116 0.525 0.121 0.467 0.116 0.467 0.056 0.467 0.233 0.934 0.121 0.467 0.116 0.466 0.116 0.467 0.116 0.466 0.116 0.467 0.121 0.467v0.058l0.056 0.467 0.116 0.467h0.061l0.056 0.467h0.061l0.061 0.467 0.116 0.466 0.116 0.467v0.058l0.116 0.408 0.177 0.467 0.061 0.467h0.056l0.116 0.467 0.121 0.467 0.582 2.334h0.061l0.061 0.467h0.056l0.116 0.409v0.233l0.121 0.467 0.116 0.466 0.116 0.467 0.116 0.466h0.056l0.121 0.467 0.116 0.467 0.116 0.466v0.059l0.116 0.409 0.061 0.058 0.116 0.408v0.058l0.116 0.409v0.058l0.116 0.408 0.061 0.058 0.116 0.409v0.175l0.116 0.409v0.058l0.177 0.408v0.058l0.116 0.409v0.059l0.116 0.408v0.058l0.177 0.409v0.059l0.116 0.409v0.116l0.121 0.408 0.056 0.059 0.116 0.409v0.058l0.116 0.408 0.061 0.059 0.116 0.409v0.058l0.116 0.409c-37.434 6.945-72.643 20.6-104.221 39.566-8.026 3.385-16.579 6.128-25.425 8.054-9.608 2.042-19.626 3.151-29.996 3.151-38.783 0-73.758-15.64-99.125-40.85l-0.058-0.058c-7.674-7.645-14.471-16.224-20.271-25.503h92.329c11.365 0 20.505-9.162 20.505-20.425s-9.198-20.425-20.505-20.425h-109.26c-2.46-10.388-3.75-21.242-3.75-32.389v-1.576h113.068c11.365 0 20.504-9.162 20.504-20.426s-9.197-20.425-20.504-20.425h-106.448c6.854-21.476 18.806-40.733 34.448-56.315 25.308-25.269 60.401-40.909 99.125-40.909 10.369 0 20.387 1.109 29.937 3.21 10.077 2.159 19.626 5.369 28.414 9.396 10.311 4.669 22.437 0.175 27.065-10.038 4.687-10.213 0.176-22.292-10.076-26.961-11.776-5.369-24.136-9.512-36.79-12.255-12.479-2.684-25.368-4.143-38.549-4.143-50.031 0-95.317 20.192-128.124 52.872-23.141 23.051-40.072 52.346-48.040 85.143h-41.36c-11.365 0-20.505 9.162-20.505 20.425s9.198 20.426 20.505 20.426h36.322v1.576c0 11.088 0.996 21.884 2.87 32.389h-39.193c-11.365 0-20.505 9.162-20.505 20.425s9.198 20.425 20.505 20.425zM644.487 573.245c-5.562-4.198-11.715-7.936-18.334-11.143l-0.116-0.061c-6.563-3.091-13.591-5.66-20.973-7.526-5.627-1.462-11.483-2.453-17.576-3.151v-36.943c0-11.259-9.142-20.424-20.503-20.424-11.366 0-20.564 9.165-20.564 20.424v38.461c-15.76 2.858-30.995 8.634-43.529 17.213-14.587 10.040-25.661 23.869-30.231 41.667-2.402 9.57-2.928 20.191-1.052 31.805 3.454 21.127 15.523 37.585 30.874 50.832 13.591 11.785 29.524 20.773 43.408 28.067 9.374 4.906 18.809 8.639 28.006 12.316l1.052 0.41c21.853 8.634 41.654 16.924 42.65 42.892v0.526l0.061 2.625c-0.237 14.648-6.386 26.377-15.877 34.49-9.197 7.82-21.62 12.66-35.267 13.945-0.88 0.061-1.699 0.116-2.579 0.233l-2.462 0.116h-0.41l-3.868 0.061c-9.779-0.116-20.326-1.927-31.4-5.194-11.776-3.561-24.194-8.755-37.143-15.523-9.956-5.25-22.379-1.457-27.651 8.522-5.273 9.919-1.406 22.291 8.553 27.541 15.351 7.941 30.171 14.243 44.465 18.441h0.116c11.017 3.212 21.737 5.371 32.223 6.302v36.534c0 11.32 9.197 20.424 20.564 20.424s20.503-9.16 20.503-20.424v-39.508c15.351-3.91 29.468-10.91 40.951-20.657 18.102-15.467 29.705-37.525 30.115-65.071v-0.582l-0.061-2.979v-1.224c-1.876-52.345-33.569-65.536-68.366-79.309l-0.94-0.41c-8.141-3.207-16.519-6.591-24.134-10.561-11.892-6.242-25.311-13.773-35.738-22.817-8.732-7.587-15.583-16.398-17.282-26.61-0.88-5.665-0.703-10.738 0.465-15.174 1.876-7.531 6.917-13.601 13.652-18.269 8.029-5.483 18.511-9.16 29.645-10.971 3.575-0.582 7.089-0.991 10.664-1.164h0.586l2.281-0.116c8.909-0.237 17.636 0.698 25.661 2.742 4.98 1.285 9.551 2.918 13.591 4.841v-0.056c3.928 1.866 7.619 4.203 11.134 6.828 8.965 6.828 21.853 5.078 28.649-3.854 6.912-8.927 5.153-21.709-3.812-28.537zM822.938 332.988h81.315c11.366 0 20.503-9.162 20.503-20.425s-9.197-20.425-20.503-20.425h-66.434l82.134-109.595c6.796-9.045 4.864-21.826-4.157-28.537-9.025-6.77-21.914-4.902-28.649 4.143l-84.829 113.097-84.773-113.097c-6.74-9.045-19.628-10.913-28.649-4.143-9.081 6.711-10.896 19.492-4.161 28.537l82.139 109.595h-66.434c-11.366 0-20.564 9.162-20.564 20.425s9.253 20.425 20.564 20.425h81.431v30.171h-81.431c-11.366 0-20.564 9.162-20.564 20.425s9.253 20.426 20.564 20.426h81.431v52.697c0 11.262 9.137 20.426 20.503 20.426s20.564-9.165 20.564-20.426v-52.697h81.431c11.366 0 20.508-9.162 20.508-20.426s-9.197-20.425-20.508-20.425h-81.431v-30.171zM558.545 115.373c-26.48-32.33-59.229-59.291-96.371-78.9-43.938-23.285-94.204-36.473-147.399-36.473-86.939 0-165.559 35.073-222.504 91.796h-0.118c-56.886 56.724-92.153 135.156-92.153 221.7 0 80.592 30.641 154.122 80.789 209.679 45.286 50.069 106.565 85.551 175.871 98.448-8.377 28.127-12.83 58.010-12.83 88.879 0 86.547 35.209 164.92 92.153 221.645h0.117c56.944 56.664 135.564 91.853 222.446 91.853s165.502-35.133 222.506-91.853h0.056c56.944-56.669 92.216-135.098 92.216-221.645 0-30.869-4.515-60.691-12.893-88.879 69.306-12.898 130.644-48.435 175.872-98.448 50.264-55.557 80.789-129.087 80.789-209.679 0-86.544-35.207-164.977-92.155-221.7-56.944-56.665-135.624-91.796-222.562-91.796s-165.618 35.073-222.562 91.796v0.117c-7.498 7.47-14.587 15.29-21.267 23.46zM487.657 447.019l0.293-0.058 1.992-0.525 4.101-1.050 2.109-0.467 0.703-0.175 1.35-0.292 0.936-0.175 1.233-0.233 1.168-0.234 9.374-1.751 2.109-0.35 0.293-0.059c11.892-1.984 24.078-3.151 36.501-3.559h17.105l2.518 0.058h0.177l2.634 0.116h0.763l1.932 0.117 1.527 0.058 1.112 0.059 2.402 0.175h0.233l2.634 0.175 0.586 0.058 2.053 0.175 1.406 0.116 1.229 0.117 2.23 0.233 0.41 0.059 2.574 0.292 0.47 0.058 2.169 0.292 1.229 0.175 1.289 0.175 2.053 0.291 0.526 0.059 5.153 0.817 1.173 0.175 1.406 0.292 1.876 0.35 3.221 0.584 0.177 0.058 2.341 0.467 0.996 0.233 1.527 0.35 1.755 0.409 0.763 0.175 2.518 0.584h0.061c6.558 1.634 13.121 3.443 19.507 5.544l0.177 0.058 6.149 2.101 1.057 0.35 4.743 1.751 0.531 0.175c5.213 1.984 10.37 4.085 15.407 6.361l0.526 0.175c4.864 2.218 9.667 4.609 14.355 7.062l1.406 0.698 1.522 0.819 2.872 1.573c2.928 1.578 5.8 3.272 8.555 4.962h0.056l2.755 1.634 1.522 0.936 1.229 0.815 0.824 0.526 1.932 1.224 0.177 0.121 2.579 1.69 1.522 1.052 1.229 0.815 0.94 0.642 1.755 1.229 0.354 0.289 2.109 1.462 0.177 0.172 1.871 1.345 0.819 0.582 1.233 0.936 1.345 1.047 0.703 0.526 1.876 1.462 0.116 0.056 1.992 1.578 0.47 0.349 1.522 1.224 0.996 0.819 0.996 0.815 1.522 1.285 0.47 0.349 1.932 1.694 0.116 0.056 1.82 1.578 1.871 1.694 1.233 1.108 0.703 0.642 1.699 1.517 0.177 0.172 1.871 1.75 0.354 0.293 1.466 1.462 0.875 0.815 0.996 0.991 1.35 1.285 0.47 0.465 1.815 1.811h0.056l1.699 1.811 0.531 0.582 1.229 1.285 1.052 1.108 0.763 0.819 1.406 1.573 0.293 0.293 1.699 1.927 0.233 0.233 1.466 1.634 0.703 0.815 0.996 1.168 1.173 1.341 0.526 0.586 1.583 1.927 0.061 0.056 1.992 2.453 1.229 1.457 0.88 1.108 0.759 0.936 1.229 1.634 0.293 0.41 1.527 2.043 0.177 0.172 1.345 1.866 0.586 0.759 0.996 1.285 0.996 1.345 0.526 0.759 1.35 1.983 0.056 0.116 1.466 2.099 0.293 0.47 1.168 1.634 0.703 1.108 0.763 1.108 1.112 1.634 0.293 0.465 1.35 2.22 0.056 0.056c26.186 41.844 41.36 91.271 41.36 144.263 0 75.278-30.636 143.444-80.142 192.815-49.562 49.366-117.988 79.83-193.62 79.83-75.636 0-144.062-30.464-193.624-79.83h0.059c-49.504-49.371-80.143-117.537-80.143-192.815 0-39.568 8.435-77.21 23.667-111.174l0.059-0.116 0.409-0.931 0.586-1.229 0.82-1.806 0.176-0.354 1.055-2.155 0.234-0.526c18.864-38.749 46.692-72.481 80.729-98.448 7.675-5.837 15.642-11.264 23.844-16.282 1.347-0.586 2.578-1.345 3.691-2.22 20.563-11.671 43.236-21.241 67.195-27.661zM541.85 397.474l-0.177-0.409v-0.058l-0.177-0.525-0.056-0.117-0.116-0.408-0.121-0.35-0.056-0.175-0.177-0.525v-0.058l-0.177-0.466-0.056-0.292-0.061-0.233-0.177-0.525-0.172-0.525-0.061-0.234-0.116-0.291-0.116-0.467-0.061-0.059-0.116-0.525-0.061-0.175-0.232-0.7-0.061-0.175-0.116-0.467-0.056-0.116-0.116-0.409-0.121-0.292-0.056-0.175-0.116-0.525-0.177-0.466-0.061-0.234-0.116-0.234-0.116-0.525-0.177-0.525-0.056-0.175-0.061-0.35-0.116-0.409-0.061-0.117-0.116-0.525-0.061-0.117-0.116-0.409-0.056-0.35-0.061-0.175-0.116-0.525-0.061-0.058-0.116-0.467-0.061-0.292-0.056-0.234-0.177-0.525-0.116-0.525-0.061-0.175-0.056-0.292-0.116-0.467-0.061-0.059-0.116-0.525-0.061-0.175-0.056-0.35-0.121-0.35-0.056-0.175-0.116-0.525v-0.058l-0.116-0.467-0.116-0.292v-0.233l-0.177-0.525-0.116-0.525-0.061-0.234-0.061-0.291-0.116-0.467v-0.059l-0.116-0.525-0.061-0.175-0.056-0.35-0.116-0.408v-0.117l-0.177-0.584v-0.058l-0.061-0.409-0.116-0.35-0.056-0.175-0.121-0.525-0.116-0.525v-0.233l-0.116-0.292-0.061-0.525-0.116-0.525-0.056-0.175-0.061-0.35-0.116-0.467v-0.058l-0.116-0.525-0.061-0.116-0.056-0.408-0.061-0.35-0.061-0.117-0.116-0.584v-0.058l-0.056-0.467-0.061-0.292-0.061-0.233-0.116-0.525c-2.988-15.99-4.51-32.739-4.51-50.071v-3.91l0.061-1.284v-1.809l0.056-0.817v-1.284l0.061-1.284v-0.058l0.061-1.226 0.056-1.284 0.061-0.992v-0.292l0.056-1.284 0.116-1.284v-0.584l0.061-0.701 0.116-1.284 0.293-3.852 0.116-1.109v-0.175l0.237-2.568 0.056-0.7 0.354-3.093 0.056-0.35c3.691-31.921 12.888-62.209 26.601-89.812l0.056-0.058 2.811-5.544 0.237-0.35 0.996-1.867 0.582-1.051v-0.817l0.647-1.109 0.642-1.109 0.354-0.583 0.293-0.467 0.586-1.109 0.642-1.109 0.116-0.175 0.531-0.934 0.703-1.109 0.465-0.876 0.177-0.233 0.647-1.109 0.703-1.108 0.233-0.409 0.41-0.642 0.703-1.051 0.647-1.109h0.056l0.647-1.109 0.703-1.051 0.41-0.641 0.293-0.409 1.406-2.101 0.116-0.233 0.586-0.817 1.289-1.926 0.172-0.175 1.704-2.509c9.37-13.48 19.917-26.086 31.516-37.641h0.061c49.501-49.312 117.988-79.833 193.564-79.833 75.571 0 144.058 30.521 193.559 79.833 49.566 49.312 80.147 117.532 80.147 192.814 0 70.145-26.54 134.105-70.125 182.366-40.951 45.228-96.842 76.8-159.879 86.835-15.877-35.188-37.902-66.932-64.912-93.836l-0.056-0.061c-15.118-14.997-31.697-28.478-49.566-40.208l-0.172-0.117-2.23-1.4-4.859-3.093-2.462-1.459-0.061-0.058-2.402-1.401-4.98-2.918-2.518-1.401-2.574-1.342c-2.523-1.401-5.041-2.743-7.619-4.027l-2.634-1.284-0.647-0.35-1.932-0.934-1.466-0.7-1.168-0.525-2.285-1.109-0.293-0.116-2.695-1.226-0.526-0.234-2.113-0.934-1.345-0.642-1.229-0.525-2.23-0.992-0.465-0.175-2.695-1.109-0.41-0.175-2.285-0.876-1.289-0.525-1.406-0.584-2.109-0.817-0.586-0.175-2.755-1.050-0.293-0.117-2.458-0.876-2.755-0.992-2.048-0.701-0.763-0.233-2.811-0.934-3.868-1.226-1.699-0.525-1.932-0.584-0.94-0.234-2.811-0.817-2.872-0.817-0.936-0.234-1.876-0.525-1.876-0.467-1.052-0.233-2.755-0.7h-0.116l-2.872-0.701-0.819-0.175-2.109-0.467-1.699-0.409-1.173-0.233-2.695-0.584-0.233-0.058-2.928-0.584-0.703-0.117-3.807-0.701-1.35-0.233-2.518-0.409-0.41-0.058-2.988-0.467-0.526-0.058-2.462-0.35-1.466-0.233-1.462-0.175-2.462-0.35-0.526-0.058-2.988-0.35-0.41-0.058-2.639-0.292-1.289-0.116-1.638-0.175-2.341-0.175-0.707-0.058-3.044-0.234h-0.293l-2.755-0.175-1.229-0.058-1.755-0.058-2.23-0.117-0.875-0.058-3.049-0.117h-0.116l-2.932-0.058h-1.168l-1.936-0.059h-19.098l-3.924 0.059z"></path>
</svg>
