<!-- Generated by IcoMoon.io -->
<svg version="1.1" xmlns="http://www.w3.org/2000/svg" width="1024" height="1024" viewBox="0 0 1024 1024">
<title></title>
<g id="icomoon-ignore">
</g>
<path d="M899.84 877.23h-768c-19.317-0.017-34.973-15.673-34.99-34.988v-655.362c0.023-19.315 15.675-34.967 34.988-34.99h768.002c19.317 0.017 34.973 15.673 34.99 34.988v655.362c-0.017 19.317-15.673 34.973-34.988 34.99h-0.002zM131.84 180.91c-3.295 0.006-5.964 2.675-5.97 5.969v655.361c0 3.287 2.673 5.97 5.97 5.97h768c3.295-0.006 5.964-2.675 5.97-5.969v-655.361c-0.006-3.295-2.675-5.964-5.969-5.97h-768.001z"></path>
<path d="M515.84 553.339c-0.012 0-0.027 0-0.042 0-9.209 0-17.58-3.586-23.794-9.437l0.018 0.016-375.245-352.86 19.876-21.146 375.245 352.87c2.253 2.099 5.622 2.099 7.864 0l375.255-352.87 19.876 21.146-375.245 352.86c-6.186 5.835-14.548 9.421-23.748 9.421-0.021 0-0.042 0-0.063 0h0.003z"></path>
</svg>
