<!-- Generated by IcoMoon.io -->
<svg version="1.1" xmlns="http://www.w3.org/2000/svg" width="1024" height="1024" viewBox="0 0 1024 1024">
<title></title>
<g id="icomoon-ignore">
</g>
<path d="M967.782 733.696c-23.77 0-136.073-17.958-138.078-273.309 5.914-97.724-30.746-193.388-101.158-264.066-54.199-48.334-123.661-77.757-197.299-83.673 4.122-11.093 2.325-23.401-4.702-33.068-7.023-9.667-18.432-15.424-30.741-15.53-10.513-0.528-20.864 3.116-28.523 10.089-7.663 7.026-11.994 16.745-11.942 26.887 0.794 4.12 2.325 8.029 4.544 11.674-73.424 6.286-142.57 35.709-196.768 83.673-70.467 70.678-107.127 166.342-101.21 264.066 0 257.303-115.843 272.834-138.61 273.312h-4.067c-5.071-0.107-9.931 1.69-13.576 5.12-3.592 3.328-5.652 8.030-5.652 12.89 0 9.882 7.976 18.014 18.224 18.543h954.576c4.702-0.422 9.088-2.534 12.1-6.020 3.063-3.435 4.489-7.979 4.066-12.467-1.003-10.564-10.3-18.436-21.184-18.121zM111.828 733.696c43.527-37.926 86.525-115.738 87.529-273.309-5.441-87.581 26.94-173.42 89.536-237.337 118.22-99.784 295.073-99.784 413.294 0 62.754 63.811 95.134 149.702 89.536 237.337 0 157.572 44.002 235.434 87.531 273.309h-767.425zM593.527 812.668c3.593-3.379 8.503-5.231 13.577-5.069 5.018-0.162 9.877 1.69 13.363 5.124 3.541 3.379 5.495 8.026 5.338 12.834 3.063 46.801-21.184 91.332-62.916 115.58-41.728 24.299-93.973 24.299-135.701 0-41.732-24.247-65.979-68.779-62.915-115.58 1.532-8.875 9.562-15.479 18.964-15.479s17.432 6.605 18.964 15.479c-2.589 33.438 14.527 65.502 44.32 82.987 29.739 17.485 67.191 17.485 96.986 0 29.79-17.485 46.908-49.549 44.318-82.987 0.051-4.809 2.112-9.455 5.705-12.89z"></path>
</svg>
