<!-- Generated by IcoMoon.io -->
<svg version="1.1" xmlns="http://www.w3.org/2000/svg" width="1024" height="1024" viewBox="0 0 1024 1024">
<title></title>
<g id="icomoon-ignore">
</g>
<path d="M527.324 876.196c-3.564 0-7.119-0.976-10.257-2.929-16.665-10.379-408.355-256.871-436.366-500.994-8.238-71.785 15.536-136.233 70.656-191.561 37.954-42.778 91.975-66.334 152.176-66.334 77.614 0 158.166 39.423 223.79 108.885 65.624-69.462 146.176-108.885 223.781-108.885 60.192 0 114.212 23.555 152.157 66.334 55.49 55.699 79.396 120.497 71.045 192.604-28.294 244.246-420.091 489.638-436.754 499.97-3.137 1.943-6.682 2.91-10.228 2.91zM303.534 153.203c-49.111 0-92.96 19.053-123.464 53.651-0.265 0.303-0.55 0.598-0.834 0.881-47.281 47.281-66.894 99.662-59.954 160.11 23.518 204.964 346.069 425.285 408.062 465.865 62.049-40.456 384.696-259.981 408.393-464.888 7.033-60.751-12.712-113.445-60.353-161.086-0.294-0.284-0.569-0.578-0.834-0.891-30.494-34.589-74.334-53.642-123.446-53.642-72.154 0-148.347 40.721-209.022 111.71-3.687 4.313-9.081 6.797-14.759 6.797v0c-5.678 0-11.071-2.484-14.759-6.797-60.675-70.989-136.867-111.71-209.031-111.71z"></path>
</svg>
