<!-- Generated by IcoMoon.io -->
<svg version="1.1" xmlns="http://www.w3.org/2000/svg" width="1024" height="1024" viewBox="0 0 1024 1024">
<title></title>
<g id="icomoon-ignore">
</g>
<path d="M733.722 648.742l16.657-9.638c6.106-3.537 11.409-8.252 15.586-13.769 2.449-3.187 3.904-6.895 5.355-10.607l0.7-1.766c68.241-9.267 129.25-41.617 173.491-90.039 46.494-50.995 74.884-118.806 74.884-193.207 0-79.114-32.137-150.783-83.989-202.686h-0.051l-0.055-0.054c-51.904-51.904-123.571-83.988-202.633-83.988s-150.835 32.138-202.739 83.988v0.054h-0.055c-5.013 5.016-9.327 10.608-13.641 16.209l-0.004 0.002c-1.856 2.412-3.716 4.826-5.636 7.196-24.478-30.424-54.477-55.974-89.024-74.293-40.173-21.318-86.131-33.478-134.767-33.478-79.436 0-151.425 32.246-203.49 84.256v0.108c-52.064 52.064-84.31 124-84.31 203.382 0 74.026 27.96 141.515 73.865 192.51 41.19 45.743 97.219 76.971 160.156 88.917l-2.249 8.247 0.053 0.051-4.713 17.626-0.054-0.055c-1.821 6.963-2.196 13.982-1.286 20.783h0.054c0.911 7.070 3.214 13.769 6.642 19.657 3.375 5.948 8.088 11.302 13.712 15.642 5.463 4.177 11.73 7.394 18.587 9.216l23.782 6.37v0.111c0.268 4.284 0.75 8.836 1.286 13.551l0.107 1.071c0.589 4.608 1.393 9.374 2.41 14.246l-3.375 1.929-1.232 0.695-16.659 9.643c-6.16 3.537-11.409 8.247-15.587 13.764-4.232 5.572-7.338 11.947-9.106 18.641l-0.053-0.051c-1.768 6.639-2.25 13.658-1.339 20.783 0.857 6.801 3.053 13.551 6.589 19.657l0.053-0.051v0.107l9.16 15.748 9.052 15.744c3.589 6.268 8.303 11.571 13.659 15.642h0.053c5.571 4.288 11.945 7.394 18.641 9.161v0.107c6.642 1.766 13.658 2.249 20.729 1.284 6.856-0.909 13.552-3.106 19.712-6.588l16.658-9.643v-0.051l4.606-2.679c3.75 3.268 7.499 6.374 11.142 9.216v-0.055l0.053 0.055c3.696 2.837 7.499 5.568 11.356 8.141l0.589 0.427-6.374 23.782c-1.821 6.912-2.25 13.982-1.286 20.783 0.964 7.125 3.267 13.769 6.642 19.661 3.214 5.568 7.552 10.603 12.802 14.835l0.911 0.802c5.463 4.181 11.731 7.394 18.64 9.216l17.622 4.71v-0.051l17.677 4.766-0.055 0.055c6.912 1.818 13.926 2.193 20.732 1.284v-0.055c7.070-0.964 13.82-3.264 19.712-6.639s11.302-8.090 15.642-13.713c4.177-5.466 7.334-11.729 9.212-18.641l4.979-18.586 1.395-5.197h0.107c4.284-0.269 8.785-0.751 13.495-1.284l1.075-0.162c4.604-0.589 9.425-1.391 14.298-2.355l1.984 3.375 0.695 1.229 9.643 16.661c3.482 6.106 8.247 11.409 13.713 15.586 5.568 4.284 11.942 7.39 18.641 9.161v0.051c6.588 1.771 13.658 2.249 20.727 1.34 6.857-0.909 13.606-3.106 19.657-6.588v-0.055l0.107-0.051 31.445-18.159c6.050-3.482 11.302-8.247 15.531-13.764 4.233-5.572 7.394-11.947 9.161-18.641l0.107 0.051c1.771-6.639 2.197-13.713 1.233-20.727-0.858-6.857-3.055-13.606-6.588-19.712l-9.643-16.657-2.731-4.663c3.319-3.695 6.374-7.445 9.212-11.14v-0.051h0.055c2.837-3.699 5.568-7.552 8.085-11.409l0.431-0.589 5.248 1.391 18.586 4.979c6.857 1.822 13.926 2.197 20.732 1.289 7.070-0.964 13.764-3.268 19.712-6.694 5.568-3.217 10.603-7.501 14.835-12.749l0.751-0.964c4.177-5.466 7.445-11.733 9.212-18.59l4.77-17.673h-0.055l4.715-17.626h0.107c1.822-6.908 2.197-13.926 1.233-20.727-0.964-7.070-3.268-13.82-6.699-19.712-3.375-5.892-8.034-11.247-13.713-15.586-5.406-4.177-11.729-7.394-18.586-9.216l-23.834-6.37c-0.205-4.032-0.687-8.303-1.19-12.719l-0.098-0.836-0.107-1.071c-0.589-4.604-1.391-9.425-2.355-14.302l3.375-1.929 1.34-0.589zM557.282 153.437l0.107-0.107c45.047-45.047 107.341-72.901 176.277-72.901 68.83 0 131.179 27.907 176.282 72.901l0.051 0.107c45.047 45.047 72.9 107.396 72.9 176.226 0 64.759-24.64 123.786-65.079 168.082-37.175 40.708-88.166 68.134-145.050 77.188-0.397-1.071-0.687-2.167-0.969-3.255-0.486-1.847-0.969-3.682-1.98-5.367l-0.051-0.055-9.161-15.748-8.358-14.571-0.695-1.229c-3.482-6.11-8.247-11.358-13.764-15.59-5.572-4.228-11.947-7.334-18.641-9.156v-0.055c-6.588-1.766-13.658-2.249-20.732-1.284-6.801 0.858-13.602 3.106-19.657 6.588l-16.657 9.643-4.553 2.675c-3.695-3.319-7.501-6.374-11.145-9.212l-0.051 0.055-0.055-0.055c-4.015-3.106-7.979-5.943-11.836-8.516l-0.107-0.055 1.34-5.193 5.035-18.641c1.822-6.857 2.193-13.926 1.284-20.73-0.964-6.964-3.268-13.713-6.643-19.604-3.213-5.571-7.497-10.606-12.8-14.837l-0.909-0.803c-5.466-4.178-11.785-7.392-18.59-9.213l-17.677-4.713v0.053l-17.673-4.767 0.051-0.054c-6.908-1.821-13.978-2.196-20.783-1.286l0.055 0.054c-7.125 0.964-13.82 3.214-19.712 6.642-5.892 3.375-11.302 8.035-15.586 13.712-0.836 1.082-1.37 2.344-1.907 3.618-0.393 0.933-0.789 1.873-1.31 2.756-5.035-10.552-9.481-21.426-13.013-32.728-7.232-23.407-11.145-48.368-11.145-74.347 0-68.83 27.857-131.178 72.905-176.226zM37.495 330.412c0-69.097 27.961-131.714 73.276-176.975 45.262-45.262 107.878-73.276 176.976-73.276 42.369 0 82.274 10.498 117.198 29.085 33.315 17.676 61.812 42.905 83.99 72.847-26.142 43.28-42.103 93.416-42.103 147.569 0 29.621 4.553 58.331 12.962 85.381 6.481 20.783 15.962 40.066 26.782 58.599-1.391 0.107-2.679 0.213-4.070 0.375l-1.071 0.107c-4.553 0.589-9.318 1.446-14.246 2.411l-1.984-3.43-0.644-1.229-9.638-16.713c-3.537-6.106-8.252-11.409-13.769-15.587-5.568-4.231-11.942-7.338-18.586-9.106v-0.053c-6.588-1.768-13.658-2.25-20.729-1.339-6.802 0.911-13.552 3.053-19.658 6.589v0.054l-0.054 0.053-31.496 18.212c-6.267 3.589-11.569 8.303-15.641 13.659v0.053c-4.285 5.57-7.392 11.945-9.159 18.588h-0.107c-1.768 6.588-2.196 13.713-1.286 20.727 0.857 6.857 3.053 13.606 6.642 19.712l9.588 16.657 2.678 4.608c-2.892 3.319-5.999 7.070-9.213 11.247-2.839 3.699-5.571 7.501-8.142 11.358l-0.429 0.644-23.782-6.374c-6.856-1.822-13.926-2.253-20.729-1.289-7.124 0.964-13.819 3.324-19.712 6.643-2.415 1.387-4.45 3.388-6.494 5.397-0.721 0.708-1.443 1.417-2.183 2.103-59.509-8.41-112.591-37.069-150.997-79.757-39.852-44.406-64.17-103.166-64.17-167.55zM714.918 616.23l-1.178 0.802-15.428 8.892c-7.497 4.339-10.82 13.069-8.674 21.052 1.071 3.908 1.98 7.821 2.731 11.729 0.802 3.75 1.446 7.77 1.98 11.891l0.107 0.751c0.431 3.537 0.858 7.394 1.075 11.358 0.32 3.908 0.427 8.034 0.427 12.211 0 8.678 5.837 15.962 13.926 18.103v0.055l37.175 9.963c2.086 0.589 3.964 1.498 5.461 2.675 1.66 1.182 3.055 2.893 4.070 4.715 1.126 1.877 1.822 3.857 2.091 5.786v0.055h-0.055c0.269 1.929 0.162 3.964-0.427 6.106h0.051l-4.71 17.621h-0.107l-4.715 17.621c-0.538 2.091-1.446 3.964-2.679 5.517l-0.427 0.593c-1.126 1.284-2.628 2.517-4.233 3.482-1.877 1.071-3.913 1.766-5.948 2.035-1.873 0.265-3.908 0.107-6.050-0.482l-37.175-9.963c-8.785-2.359-17.783 1.924-21.641 9.801-1.873 3.213-3.746 6.319-5.73 9.267l-0.533 0.858c-2.091 3.157-4.339 6.212-6.592 9.156-2.624 3.324-5.141 6.43-7.71 9.323-2.573 2.944-5.359 5.837-8.196 8.73-6.323 6.323-7.232 16.017-2.624 23.3l9.212 15.962h0.055l-0.055 0.055 9.643 16.713c1.122 1.873 1.766 3.857 1.98 5.675 0.269 1.984 0.107 4.126-0.482 6.217h0.055c-0.538 1.98-1.446 3.908-2.731 5.623-1.126 1.446-2.735 2.837-4.663 3.964l-1.178 0.751-14.622 8.41-15.748 9.156-0.055-0.051c-1.873 1.122-3.853 1.766-5.675 1.98-1.929 0.269-4.126 0.107-6.217-0.482l-0.051 0.055c-1.929-0.538-3.913-1.446-5.572-2.731-1.446-1.126-2.837-2.735-3.964-4.663l-9.638-16.657-0.751-1.233-8.947-15.424c-4.497-7.77-13.713-11.034-21.905-8.41-3.375 0.909-6.963 1.715-10.769 2.517-3.75 0.751-7.765 1.391-11.942 1.929l-0.751 0.107c-3.537 0.482-7.339 0.858-11.358 1.126-3.908 0.265-7.979 0.427-12.211 0.427-8.678 0-15.962 5.837-18.103 13.871l-4.983 18.59-4.979 18.586c-0.538 2.091-1.502 3.964-2.624 5.517-1.233 1.553-2.893 2.999-4.715 4.019-1.873 1.122-3.857 1.818-5.786 2.086h-0.213v-0.269c-1.929 0.269-4.019 0.162-6.106-0.427v0.107l-17.626-4.766v-0.055l-17.621-4.766c-2.142-0.538-3.963-1.446-5.517-2.679l-0.589-0.427c-1.285-1.126-2.464-2.573-3.482-4.233-1.071-1.873-1.821-3.908-2.035-5.786v-0.051c-0.214-1.929-0.107-4.019 0.428-6.11l9.961-37.171c2.359-8.785-1.927-17.783-9.801-21.641-3.214-1.873-6.321-3.857-9.267-5.786l-0.803-0.533c-3.16-2.091-6.214-4.339-9.159-6.588-3.321-2.573-6.428-5.146-9.32-7.714-2.946-2.573-5.892-5.359-8.731-8.196-6.321-6.268-16.016-7.177-23.247-2.573l-15.962 9.216v-0.055l-16.659 9.643c-1.928 1.126-3.91 1.766-5.731 2.035-1.982 0.269-4.125 0.055-6.214-0.538v0.111c-1.982-0.538-3.91-1.446-5.571-2.735v-0.051c-1.607-1.233-3-2.786-4.017-4.553l-9.106-15.855-0.053-0.055-9.106-15.799c-1.125-1.877-1.768-3.857-1.982-5.734-0.375-1.929-0.214-4.070 0.375-6.212h-0.054c0.535-2.035 1.446-3.964 2.732-5.572 1.125-1.498 2.732-2.889 4.606-3.964l16.712-9.638 1.178-0.806 15.48-8.943c7.767-4.501 11.034-13.713 8.41-21.854-0.857-3.375-1.714-7.019-2.464-10.82-0.75-3.75-1.393-7.765-1.982-11.891l-0.107-0.751c-0.428-3.533-0.803-7.39-1.071-11.354s-0.375-8.034-0.375-12.267c0-8.623-5.892-15.962-13.873-18.052v-0.055l-18.586-4.979-18.587-5.035c-2.089-0.538-3.964-1.446-5.463-2.624-1.607-1.233-3.053-2.893-4.071-4.715-1.071-1.873-1.821-3.857-2.089-5.786v-0.051h0.053c-0.268-1.929-0.107-4.019 0.429-6.11h-0.108l4.714-17.621h0.054l4.713-17.621c0.589-2.142 1.5-3.964 2.678-5.517l0.429-0.589c1.125-1.34 2.571-2.517 4.285-3.482 1.875-1.071 3.857-1.822 5.785-2.035l0.054-0.055v0.055c1.928-0.269 4.017-0.111 6.106 0.427l18.587 4.983 18.587 5.035c8.784 2.355 17.783-1.929 21.693-9.805 1.875-3.268 3.803-6.319 5.785-9.318l0.535-0.802c2.143-3.217 4.339-6.268 6.642-9.216 2.143-2.786 4.66-5.837 7.553-9.105l0.75-0.909c2.625-2.999 5.142-5.628 7.553-8.090 6.053-6.054 7.017-15.317 2.999-22.443l-9.695-16.606-0.054-0.051h0.054l-9.588-16.661c-1.125-1.929-1.768-3.908-1.982-5.786-0.268-1.929-0.107-4.070 0.428-6.157l-0.053-0.055c0.535-1.929 1.5-3.857 2.732-5.572v0.055c1.232-1.609 2.785-3.055 4.553-4.019l31.71-18.371v0.054c1.929-1.125 3.857-1.768 5.731-1.982 1.982-0.268 4.125-0.107 6.267 0.482v-0.053c1.982 0.535 3.91 1.446 5.571 2.732 1.5 1.126 2.892 2.73 4.017 4.658l9.643 16.606 0.802 1.178 8.947 15.479c4.497 7.77 13.709 11.038 21.905 8.358 3.319-0.858 6.963-1.66 10.82-2.466 3.75-0.747 7.765-1.391 11.891-1.98l0.751-0.107c3.533-0.431 7.39-0.806 11.354-1.071 3.913-0.324 8.034-0.431 12.215-0.431 8.623 0 15.962-5.837 18.103-13.871h0.051l4.821-18.479 4.983-18.589c0.533-2.089 1.446-3.964 2.624-5.517 1.233-1.607 2.944-3.053 4.715-4.071 1.873-1.071 3.908-1.821 5.837-2.035h0.055c1.929-0.268 4.015-0.107 6.050 0.428l0.055-0.053 17.621 4.767-0.051 0.053 17.673 4.714c2.091 0.589 3.964 1.5 5.517 2.678l0.593 0.482c1.284 1.125 2.517 2.571 3.426 4.232 1.071 1.875 1.766 3.857 2.091 5.892 0.213 1.873 0.107 3.964-0.482 6.054l-4.983 18.586-5.035 18.586c-2.304 8.785 1.984 17.783 9.856 21.641 3.268 1.873 6.374 3.857 9.318 5.837 3.537 2.359 6.912 4.77 9.963 7.074 3.324 2.569 6.43 5.141 9.323 7.659 2.944 2.624 5.837 5.41 8.73 8.196 6.323 6.319 16.017 7.228 23.3 2.624l15.91-9.216 0.051-0.051 0.055 0.051 16.657-9.587c1.929-1.122 3.857-1.766 5.73-2.035 1.984-0.269 4.075-0.107 6.217 0.482l0.051-0.051c1.929 0.533 3.857 1.446 5.572 2.782 1.446 1.126 2.893 2.679 3.964 4.608l0.802 1.178 8.358 14.515 0.051 0.107 9.105 15.804c1.071 1.873 1.771 3.857 1.984 5.73 0.269 2.035 0.107 4.233-0.431 6.212-0.533 1.984-1.442 3.913-2.782 5.572-1.126 1.502-2.679 2.893-4.608 3.964l-16.713 9.749zM347.65 423.936h-131.982c-1.607-0.053-3.214-0.268-4.82-0.643-10.017-2.678-15.962-12.909-13.284-22.926l13.391-49.922-24.318 6.535c-9.963 2.625-20.247-3.267-22.925-13.284-2.625-9.963 3.321-20.247 13.284-22.925l45.155-12.105 27.853-103.914c2.678-9.963 12.909-15.909 22.925-13.231 9.963 2.678 15.909 12.963 13.284 22.926l-22.283 83.078 38.62-10.338c9.963-2.678 20.194 3.267 22.872 13.284 2.678 9.909-3.267 20.194-13.23 22.818l-59.456 15.962-12.641 47.136h107.557c10.338 0 18.747 8.356 18.747 18.747s-8.41 18.801-18.747 18.801zM658.726 248.517l179.546-0.107c0.589 0 1.122 0 1.66 0.107l0.964 0.214c0.858 0.161 1.553 0.428 2.197 0.75l1.553 0.75 0.533 0.911c0.235 0.349 0.41 0.727 0.572 1.072l0.179 0.375 0.107 0.482c0.303 0.752 0.414 1.551 0.516 2.266l0.021 0.144 0.213 1.929c0.107 0.589 0.107 1.177 0.107 1.713v0.001l-0.107 0.964c-0.107 0.964-0.375 1.768-0.751 2.517h0.055l-0.7 1.875-23.351 73.329c-0.695 1.607-1.446 3.267-2.197 4.767l-0.533 0.964-0.529 0.896c-0.896 1.537-1.818 3.106-2.846 4.675-1.020 1.125-2.304 2.518-3.75 3.964-1.66 1.714-3.375 3.267-5.035 4.553l-0.32 0.268c-2.359 1.928-5.628 3.803-8.841 5.624l-1.122 0.535-1.609 0.964c-1.178 0.375-2.355 0.696-3.482 0.911-1.233 0.268-2.517 0.428-3.695 0.536l-0.7-0.161h-179.759c-10.338 0-18.748 8.41-18.748 18.801s8.358 18.747 18.748 18.747h179.759c0.687 0 1.297-0.039 1.993-0.084l0.367-0.023c3.051-0.161 6.106-0.589 9.105-1.125 3.644-0.75 7.232-1.714 10.658-2.999 0.704-0.234 1.348-0.553 1.997-0.874l0.738-0.358 3.051-1.661 0.964-0.589c4.501-2.517 9.318-5.303 14.089-9.159h0.051c3.055-2.411 5.892-4.928 8.465-7.446 2.249-2.303 4.715-5.142 7.39-8.463l0.913-1.232 0.107 0.053c1.873-2.839 3.644-5.839 5.248-8.838l0.538-1.125c1.391-2.679 2.731-5.41 3.802-8.035 0.375-0.964 0.695-1.875 0.909-2.839l23.036-72.365c1.66-3.964 2.786-8.035 3.268-12.159l0.213-1.982c0.213-3.375 0.158-6.642-0.324-10.017-0.213-3.482-0.909-7.017-1.873-10.284l-0.538-1.5c-1.071-3.16-2.406-6.053-3.964-8.731l-0.213-0.375c-1.98-3.589-4.553-6.749-7.445-9.32l-0.051-0.054c-2.999-2.732-6.537-4.928-10.394-6.535-3.426-1.661-7.014-2.946-10.551-3.642l-1.553-0.268c-3.162-0.589-6.268-0.857-9.429-0.804h-179.008c-10.338 0-18.748 8.356-18.748 18.748s8.196 18.747 18.534 18.747zM601.681 326.189h96.414c10.338 0 18.748-8.41 18.748-18.801s-8.354-18.747-18.748-18.747h-96.414c-10.338 0-18.803 8.356-18.803 18.747s8.465 18.801 18.803 18.801zM536.102 600.166c26.031 7.019 46.921 24 59.456 45.692 12.531 21.692 16.764 48.26 9.856 74.347-6.963 26.086-23.945 46.921-45.692 59.456v0.055c-21.747 12.531-48.26 16.819-74.347 9.801-26.086-6.963-46.921-23.945-59.456-45.692v0.055c-12.588-21.747-16.819-48.316-9.856-74.402 7.017-26.031 23.996-46.865 45.692-59.401v-0.055c21.747-12.587 48.26-16.819 74.347-9.856zM541.137 747.362c13.338-7.765 23.782-20.621 28.122-36.8 4.284-16.175 1.66-32.619-6.106-45.956h0.051l-0.051-0.055c-7.714-13.338-20.625-23.782-36.749-28.117-16.175-4.339-32.563-1.771-45.956 5.999v-0.055l-0.055 0.055c-13.333 7.71-23.782 20.621-28.117 36.796-4.339 16.124-1.715 32.567 5.999 45.905v0.107c7.765 13.338 20.621 23.782 36.796 28.122 16.124 4.339 32.567 1.715 45.961-5.999h0.107z"></path>
</svg>
