<!-- Generated by IcoMoon.io -->
<svg version="1.1" xmlns="http://www.w3.org/2000/svg" width="1024" height="1024" viewBox="0 0 1024 1024">
<title></title>
<g id="icomoon-ignore">
</g>
<path d="M525.025 5.209l0.168 0.117c47.599 44.236 104.538 76.567 167.947 100.319 64.312 24.103 135.54 39.509 210.762 49.78 9.118 1.226 15.979 8.812 16.938 17.858h0.056c25.093 226.784 2.811 409.624-64.535 550.443-68.022 142.28-181.448 241.259-337.751 299.092-4.445 1.634-9.115 1.517-13.222 0-156.357-57.833-269.729-156.867-337.752-299.092-67.348-140.819-89.628-323.659-64.535-550.443 1.125-9.979 9.002-17.449 18.342-18.033 74.718-10.271 145.442-25.62 209.358-49.605 63.522-23.81 120.517-56.141 168.172-100.436 7.427-7.003 18.735-6.886 26.050 0zM552.257 356.531c-10.859 0-19.692 9.162-19.692 20.426v153.485c0 11.264 8.833 20.424 19.692 20.424h35.896l-49.4 84.098c-2.363 3.384-3.77 7.526-3.77 12.023 0 11.259 8.833 20.424 19.749 20.424l77.476-0.061c6.637 0 13.051-3.5 16.766-9.742l67.686-115.144c2.365-3.384 3.77-7.531 3.77-12.023v-153.485c0-11.264-8.834-20.426-19.693-20.426h-148.48zM680.988 397.382h-109.037v112.635h51.256v0.056c3.486 0 7.033 0.991 10.24 2.979 9.225 5.832 12.153 18.381 6.526 27.951l-50.302 85.499h31.511l59.806-101.72v-127.399zM323.263 356.531c-10.859 0-19.692 9.162-19.692 20.426v153.485c0 11.264 8.833 20.424 19.692 20.424h35.896l-49.456 84.098c-2.363 3.384-3.77 7.526-3.77 12.023 0 11.259 8.833 20.424 19.692 20.424l77.475-0.061c6.583 0 13.053-3.5 16.767-9.742l67.685-115.144c2.363-3.384 3.77-7.531 3.77-12.023v-153.485c0-11.264-8.833-20.426-19.692-20.426h-148.367zM451.939 397.382h-108.983v112.635h51.2v0.056c3.488 0 7.033 0.991 10.24 2.979 9.283 5.832 12.209 18.381 6.527 27.951l-50.3 85.499h31.508l59.809-101.72v-127.399zM679.973 143.928c-62.45-23.402-119.222-54.683-168.001-96.701-48.837 42.077-105.551 73.299-168.004 96.701-62.847 23.519-131.432 39.101-203.562 49.664-21.493 211.552-0.056 381.612 62.341 512.041 62.284 130.257 166.090 221.71 309.226 276.215 143.081-54.565 246.886-145.957 309.169-276.215 62.399-130.49 83.889-300.548 62.338-512.041-72.071-10.622-140.656-26.145-203.506-49.664z"></path>
</svg>
