<svg width="210" height="85" viewBox="0 0 210 85" fill="none" xmlns="http://www.w3.org/2000/svg">
<path d="M41.9899 34.2526C41.9899 29.0297 39.1839 24.1551 34.6556 21.5492L34.1053 21.2317L32.6735 20.4079L23.9929 15.387L22.5462 14.5631L5.996 5V15.0258L13.8656 19.5681L15.3124 20.4079L23.9929 25.4118L25.4397 26.2526L30.3153 29.0576C32.167 30.1282 33.3093 32.1103 33.3093 34.2526V35.7272C33.3093 37.8685 32.167 39.8516 30.3153 40.9212L25.4397 43.7272L23.9929 44.567L15.3124 49.5719L13.8656 50.4117L5.996 54.954V64.9798L22.5462 55.4167L23.9929 54.5918L32.6735 49.5719L34.1053 48.748L34.6556 48.4296C39.1839 45.8266 41.9899 40.9501 41.9899 35.7272" fill="white"/>
<path d="M40.9799 53.8495C40.9799 58.5997 38.4277 63.0345 34.3083 65.4037L32.5053 66.4425L24.6098 71.0096L8.23978 80.4573V71.338L16.7144 66.4425L24.6098 61.8902L30.3601 58.5738C32.0456 57.5997 33.0844 55.7977 33.0844 53.8495V52.5072C33.0844 50.56 32.0456 48.757 30.3601 47.7829L24.6098 44.4674L16.7144 39.9142L8.23978 35.0187V25.8994L24.6098 35.3481L32.5053 39.9142L34.3083 40.954C38.4277 43.3232 40.9799 47.758 40.9799 52.5072" fill="#F44D03"/>
<path d="M11.8666 48.8694L5.91542 52.5321L5 17.2825L11.8666 20.9442V48.8694Z" fill="white"/>
<path d="M59.3201 58.6136C58.8714 58.6136 58.5211 58.4943 58.2654 58.2545C58.0087 58.0156 57.8813 57.736 57.8813 57.4156V24.7641C57.8813 24.4447 58.0087 24.1631 58.2654 23.9243C58.5211 23.6845 58.8714 23.5651 59.3201 23.5651H67.8066C69.6922 23.5651 71.3947 23.9014 72.9141 24.572C74.4315 25.2437 75.6295 26.3302 76.5091 27.8327C77.3887 29.3352 77.8275 31.3332 77.8275 33.8247V48.354C77.8275 50.8475 77.3887 52.8455 76.5091 54.347C75.6295 55.8485 74.4315 56.937 72.9141 57.6077C71.3947 58.2783 69.6922 58.6136 67.8066 58.6136H59.3201ZM61.0465 55.6883H67.8066C69.9479 55.6883 71.6265 55.0883 72.8414 53.8903C74.0554 52.6913 74.6643 50.8455 74.6643 48.353V33.8237C74.6643 31.3312 74.0554 29.4854 72.8414 28.2874C71.6265 27.0884 69.9648 26.4884 67.8554 26.4884H61.0465V55.6883Z" fill="white"/>
<path d="M92.309 58.95C90.6782 58.95 89.1677 58.5271 87.7777 57.6793C86.3876 56.8326 85.2762 55.7132 84.4454 54.3231C83.6135 52.9331 83.1986 51.4396 83.1986 49.8396V44.6615C83.1986 43.0645 83.6066 41.5769 84.4205 40.2038C85.2364 38.8297 86.3389 37.7272 87.7289 36.8954C89.12 36.0645 90.6463 35.6486 92.309 35.6486C93.9389 35.6486 95.4493 36.0556 96.8403 36.8715C98.2314 37.6874 99.3408 38.773 100.173 40.1322C101.003 41.4904 101.419 43.0008 101.419 44.6625V49.8406C101.419 51.4077 101.003 52.8943 100.173 54.3003C99.3408 55.7072 98.2314 56.8336 96.8403 57.6793C95.4493 58.5271 93.9389 58.95 92.309 58.95ZM92.309 56.0734C93.4274 56.0734 94.4344 55.7769 95.3289 55.1848C96.2234 54.5938 96.9428 53.8187 97.4871 52.8595C98.0304 51.9013 98.302 50.8933 98.302 49.8386V44.6605C98.302 43.6058 98.0373 42.6157 97.51 41.6884C96.9836 40.761 96.2632 40.0038 95.3528 39.4108C94.4413 38.8197 93.4264 38.5232 92.308 38.5232C91.1886 38.5232 90.1807 38.8197 89.2871 39.4108C88.3906 40.0038 87.6722 40.761 87.1289 41.6884C86.5856 42.6167 86.315 43.6068 86.315 44.6605V49.8386C86.315 50.8943 86.5777 51.9013 87.105 52.8595C87.6324 53.8187 88.3588 54.5938 89.2871 55.1848C90.2155 55.7769 91.2215 56.0734 92.309 56.0734Z" fill="white"/>
<path d="M108.132 58.6136C107.716 58.6136 107.357 58.4863 107.052 58.2296C106.748 57.9748 106.597 57.6873 106.597 57.3669V23.2278C106.597 22.8447 106.748 22.5492 107.052 22.3412C107.357 22.1332 107.716 22.0298 108.132 22.0298C108.579 22.0298 108.954 22.1332 109.258 22.3412C109.562 22.5492 109.714 22.8447 109.714 23.2278V46.5311L121.413 36.1262C121.669 35.9342 121.909 35.8386 122.133 35.8386C122.388 35.8386 122.636 35.9103 122.876 36.0546C123.116 36.1988 123.315 36.374 123.476 36.5819C123.635 36.7899 123.716 37.0366 123.716 37.3242C123.716 37.4854 123.692 37.6366 123.644 37.7809C123.595 37.9242 123.507 38.0605 123.38 38.1879L116.332 44.4207L124.626 56.5052C124.754 56.6953 124.817 56.9211 124.817 57.1759C124.817 57.3997 124.738 57.6405 124.579 57.8952C124.418 58.152 124.202 58.3589 123.932 58.5191C123.66 58.6783 123.395 58.7589 123.14 58.7589C122.757 58.7589 122.436 58.5669 122.181 58.1828L114.126 46.3878L109.714 50.2226V57.3669C109.714 57.6873 109.562 57.9748 109.258 58.2296C108.954 58.4863 108.579 58.6136 108.132 58.6136Z" fill="white"/>
<path d="M132.589 58.8674C132.372 58.8674 132.21 58.8186 132.102 58.7221C131.993 58.6246 131.89 58.4564 131.794 58.2156L126.152 42.8436C126.128 42.7719 126.097 42.6814 126.061 42.5729C126.024 42.4645 126.006 42.3859 126.006 42.3381C126.006 42.169 126.054 42.0257 126.152 41.9043C126.248 41.7839 126.375 41.6864 126.532 41.6147C126.688 41.5421 126.85 41.5063 127.019 41.5063C127.165 41.5063 127.309 41.5421 127.454 41.6147C127.599 41.6864 127.695 41.7948 127.744 41.9401L132.626 55.5042L136.568 43.0615C136.616 42.8685 136.714 42.7302 136.858 42.6456C137.003 42.561 137.17 42.5182 137.364 42.5182C137.557 42.5182 137.72 42.561 137.852 42.6456C137.985 42.7302 138.087 42.8685 138.161 43.0615L141.958 55.6843L146.95 41.9401C147.022 41.6506 147.251 41.5053 147.636 41.5053C147.781 41.5053 147.932 41.5351 148.089 41.5958C148.245 41.6565 148.371 41.7461 148.469 41.8665C148.564 41.9879 148.614 42.1322 148.614 42.3003C148.614 42.3729 148.601 42.4705 148.577 42.5899C148.553 42.7113 148.517 42.7948 148.47 42.8436L142.827 58.3609C142.755 58.5539 142.651 58.6863 142.52 58.7579C142.386 58.8306 142.248 58.8664 142.103 58.8664C141.91 58.8664 141.759 58.8306 141.651 58.7579C141.543 58.6863 141.452 58.5659 141.38 58.3967L137.365 45.6655L133.386 58.2156C133.315 58.4336 133.211 58.5957 133.079 58.7032C132.945 58.8127 132.782 58.8674 132.589 58.8674Z" fill="white"/>
<path d="M155.448 58.8316C154.05 58.8316 152.868 58.4395 151.903 57.6555C150.938 56.8724 150.457 55.6724 150.457 54.0565C150.457 52.7789 150.811 51.7908 151.523 51.0913C152.234 50.3928 153.223 49.9043 154.489 49.6257C155.754 49.35 157.219 49.2097 158.883 49.2097H160.836V48.2704C160.836 47.4257 160.686 46.5938 160.384 45.7739C160.083 44.955 159.601 44.2794 158.938 43.7491C158.274 43.2187 157.387 42.953 156.279 42.953C155.508 42.953 154.874 43.0307 154.38 43.1869C153.886 43.3451 153.489 43.5133 153.187 43.6943C152.885 43.8754 152.65 43.965 152.482 43.965C152.241 43.965 152.047 43.8506 151.903 43.6217C151.757 43.3928 151.686 43.1819 151.686 42.9879C151.686 42.6983 151.921 42.4277 152.391 42.1749C152.862 41.9212 153.458 41.7172 154.181 41.56C154.906 41.4028 155.628 41.3242 156.352 41.3242C157.92 41.3242 159.155 41.6565 160.06 42.3192C160.964 42.9829 161.615 43.8386 162.013 44.8874C162.411 45.9361 162.61 47.0645 162.61 48.2694V57.8545C162.61 58.0475 162.533 58.2226 162.375 58.3788C162.219 58.5351 162.008 58.6127 161.742 58.6127C161.502 58.6127 161.297 58.5351 161.128 58.3788C160.958 58.2226 160.875 58.0475 160.875 57.8545V56.0823C160.272 56.7818 159.519 57.4147 158.614 57.9808C157.71 58.548 156.654 58.8316 155.448 58.8316ZM155.702 57.2395C156.545 57.2395 157.359 57.0286 158.143 56.6067C158.926 56.1848 159.572 55.6664 160.078 55.0515C160.583 54.4366 160.837 53.8644 160.837 53.3331V50.6565H159.066C157.884 50.6565 156.774 50.7232 155.738 50.8555C154.701 50.9888 153.857 51.2913 153.205 51.76C152.554 52.2296 152.229 52.9709 152.229 53.9848C152.229 55.1182 152.567 55.944 153.243 56.4604C153.917 56.9808 154.737 57.2395 155.702 57.2395Z" fill="white"/>
<path d="M168.361 58.6137C168.121 58.6137 167.915 58.5361 167.746 58.3798C167.577 58.2226 167.494 58.0485 167.494 57.8555V31.6685C167.494 31.4287 167.577 31.2407 167.746 31.1083C167.915 30.976 168.121 30.9093 168.361 30.9093C168.627 30.9093 168.843 30.976 169.012 31.1083C169.18 31.2417 169.265 31.4287 169.265 31.6685V57.8555C169.265 58.0485 169.18 58.2226 169.012 58.3798C168.843 58.5361 168.626 58.6137 168.361 58.6137Z" fill="white"/>
<path d="M175.523 58.6137C175.282 58.6137 175.076 58.5361 174.908 58.3798C174.738 58.2226 174.655 58.0485 174.655 57.8555V31.6685C174.655 31.4287 174.738 31.2407 174.908 31.1083C175.076 30.976 175.282 30.9093 175.523 30.9093C175.788 30.9093 176.004 30.976 176.173 31.1083C176.341 31.2417 176.426 31.4287 176.426 31.6685V57.8555C176.426 58.0485 176.341 58.2226 176.173 58.3798C176.004 58.5361 175.788 58.6137 175.523 58.6137Z" fill="white"/>
<path d="M188.399 58.8316C186.927 58.8316 185.633 58.555 184.512 57.9997C183.39 57.4455 182.503 56.6674 181.853 55.6664C181.202 54.6654 180.877 53.4893 180.877 52.1401V47.8356C180.877 46.6535 181.184 45.5689 181.799 44.5809C182.414 43.5918 183.222 42.8028 184.223 42.2107C185.223 41.6207 186.326 41.3252 187.532 41.3252C188.713 41.3252 189.798 41.6088 190.787 42.1749C191.775 42.7421 192.578 43.5132 193.192 44.4893C193.807 45.4665 194.115 46.5938 194.115 47.8714C194.115 48.763 193.964 49.4087 193.663 49.8057C193.361 50.2038 192.981 50.4465 192.523 50.5301C192.065 50.6157 191.57 50.6575 191.041 50.6575H182.649V52.1749C182.649 53.7192 183.203 54.942 184.313 55.8465C185.421 56.751 186.808 57.2027 188.473 57.2027C189.461 57.2027 190.221 57.0823 190.751 56.8415C191.281 56.6007 191.692 56.3589 191.98 56.1162C192.27 55.8773 192.535 55.756 192.776 55.756C192.945 55.756 193.089 55.8047 193.211 55.9002C193.331 55.9977 193.428 56.1122 193.501 56.2455C193.572 56.3778 193.608 56.5052 193.608 56.6246C193.608 56.8664 193.397 57.1679 192.975 57.5291C192.552 57.8903 191.956 58.1987 191.184 58.4515C190.412 58.7052 189.484 58.8316 188.399 58.8316ZM182.648 49.1739H190.351C191.171 49.1739 191.714 49.0903 191.979 48.9212C192.245 48.753 192.377 48.4028 192.377 47.8714C192.377 47.0525 192.178 46.2625 191.78 45.5023C191.382 44.7421 190.815 44.1212 190.08 43.6396C189.343 43.158 188.494 42.9152 187.529 42.9152C186.612 42.9152 185.787 43.1331 185.052 43.567C184.317 44.0008 183.731 44.5799 183.298 45.3033C182.863 46.0257 182.647 46.8207 182.647 47.6893L182.648 49.1739Z" fill="white"/>
<path d="M203.228 58.6136C201.443 58.6136 200.082 58.2047 199.141 57.3848C198.201 56.5649 197.73 55.2634 197.73 53.4784V34.0178C197.73 33.778 197.827 33.5909 198.02 33.4576C198.212 33.3252 198.406 33.2586 198.598 33.2586C198.839 33.2586 199.051 33.3252 199.232 33.4576C199.413 33.5909 199.502 33.777 199.502 34.0178V41.5421H204.313C204.505 41.5421 204.669 41.6137 204.801 41.76C204.933 41.9043 205 42.0973 205 42.3381C205 42.5311 204.933 42.7063 204.801 42.8625C204.669 43.0187 204.505 43.0963 204.313 43.0963H199.502V53.4784C199.502 54.7331 199.785 55.6246 200.352 56.154C200.918 56.6853 201.877 56.95 203.228 56.95H204.132C204.397 56.95 204.603 57.0286 204.746 57.1848C204.892 57.342 204.964 57.541 204.964 57.7818C204.964 57.9997 204.892 58.1918 204.746 58.3609C204.602 58.5301 204.396 58.6136 204.132 58.6136H203.228Z" fill="white"/>
</svg>
