
<svg version="1.1" xmlns="http://www.w3.org/2000/svg" width="1446" height="1024" viewBox="0 0 1446 1024">
<title></title>
<g id="icomoon-ignore">
</g>
<path d="M552.033 1004.183c-12.951 13.21-29.139 19.817-46.947 19.817s-33.996-6.608-46.947-19.817l-437.094-445.938c-3.238-3.303-6.475-6.607-8.094-9.909 0 0-1.619-1.652-1.619-3.303-1.619-3.303-3.238-6.607-4.857-8.258 0-1.652 0-3.303-1.619-3.303-1.619-3.303-1.619-4.955-3.238-8.258-1.619-4.954-1.619-8.258-1.619-13.213s0-8.258 1.619-13.213c0-3.303 1.619-6.607 3.238-8.258 0-1.652 0-3.303 1.619-3.303 1.619-3.303 3.238-6.607 4.857-9.91 0 0 0-1.652 1.619-1.652 1.619-3.303 4.857-6.606 8.094-9.909l437.094-445.936c25.902-26.426 67.992-26.426 93.894 0s25.902 69.368 0 95.793l-323.773 330.323h1151.014c37.231 0 66.373 29.729 66.373 67.716s-29.142 67.716-66.373 67.716h-1151.014l323.773 330.324c25.902 23.124 25.902 66.066 0 92.491z"></path>
</svg>
