
<svg  version="1.1" xmlns="http://www.w3.org/2000/svg" width="1252" height="1024" viewBox="0 0 1252 1024">
<title></title>
<g id="icomoon-ignore">
</g>
<path d="M113.778 0c-62.838 0-113.778 50.94-113.778 113.778h113.778v-113.778zM1137.778 0h-1024v113.778h1024v-113.778zM1251.556 113.778c0-62.838-50.938-113.778-113.778-113.778v113.778h113.778zM1137.778 227.556c62.839 0 113.778-50.94 113.778-113.778h-113.778v113.778zM113.778 227.556h1024v-113.778h-1024v113.778zM0 113.778c0 62.838 50.94 113.778 113.778 113.778v-113.778h-113.778zM113.778 398.222c-62.838 0-113.778 50.94-113.778 113.778h113.778v-113.778zM1137.778 398.222h-1024v113.778h1024v-113.778zM1251.556 512c0-62.838-50.938-113.778-113.778-113.778v113.778h113.778zM1137.778 625.778c62.839 0 113.778-50.938 113.778-113.778h-113.778v113.778zM113.778 625.778h1024v-113.778h-1024v113.778zM0 512c0 62.839 50.94 113.778 113.778 113.778v-113.778h-113.778zM113.778 796.444c-62.838 0-113.778 50.938-113.778 113.778h113.778v-113.778zM1137.778 796.444h-1024v113.778h1024v-113.778zM1251.556 910.222c0-62.839-50.938-113.778-113.778-113.778v113.778h113.778zM1137.778 1024c62.839 0 113.778-50.938 113.778-113.778h-113.778v113.778zM113.778 1024h1024v-113.778h-1024v113.778zM0 910.222c0 62.839 50.94 113.778 113.778 113.778v-113.778h-113.778z"></path>
</svg>
