<!-- Generated by IcoMoon.io -->
<svg version="1.1" xmlns="http://www.w3.org/2000/svg" width="985" height="1024" viewBox="0 0 985 1024">
<title></title>
<g id="icomoon-ignore">
</g>
<path d="M231.038 916.61c-3.339-3.399-8.108-5.612-13.407-5.612-5.246 0-9.962 2.103-13.353 5.612h-0.053c-3.338 3.399-5.458 8.2-5.458 13.651 0 5.344 2.12 10.145 5.511 13.6s8.16 5.612 13.353 5.612c5.299 0 10.016-2.107 13.407-5.612v-0.11c3.391-3.399 5.511-8.255 5.511-13.596 0.053-5.179-2.12-10.039-5.511-13.544zM217.579 873.279c15.367 0 29.357 6.313 39.531 16.731l0.053 0.106c10.121 10.252 16.427 24.604 16.427 40.255 0 15.699-6.306 29.999-16.427 40.306h-0.053c-10.174 10.307-24.164 16.782-39.584 16.782-15.473 0-29.462-6.42-39.637-16.782-10.121-10.307-16.427-24.608-16.427-40.306 0-15.703 6.305-30.003 16.48-40.31l-0.053-0.051c10.227-10.362 24.27-16.731 39.69-16.731zM645.423 916.61c-3.34-3.399-8.105-5.612-13.351-5.612s-9.964 2.103-13.355 5.612h-0.055c-3.336 3.399-5.51 8.2-5.51 13.651 0 5.344 2.174 10.145 5.51 13.6 3.34 3.454 8.109 5.612 13.355 5.612 5.352 0 9.964-2.107 13.355-5.612v-0.11c3.336-3.399 5.51-8.255 5.51-13.596 0-5.396-2.174-10.201-5.51-13.706l0.051 0.161zM632.072 873.279c15.364 0 29.353 6.313 39.53 16.731l0.051 0.106c10.122 10.252 16.479 24.604 16.479 40.255 0 15.699-6.305 29.999-16.479 40.306h-0.051c-10.177 10.307-24.166 16.782-39.585 16.782-15.474 0-29.515-6.42-39.637-16.782s-16.479-24.608-16.479-40.306c0-15.703 6.305-30.003 16.479-40.31v-0.051c10.279-10.362 24.269-16.731 39.692-16.731zM571.715 104.682c-40.59-41.279-96.654-66.91-158.759-66.91-62 0-118.117 25.631-158.707 66.91-40.591 41.333-65.708 98.53-65.708 161.608 0 63.133 25.118 120.276 65.708 161.608 40.591 41.334 96.707 66.911 158.707 66.911s118.114-25.632 158.759-66.911c40.641-41.386 65.705-98.475 65.705-161.608 0-63.025-25.116-120.222-65.705-161.608zM189.547 404.752h-144.081c-2.12 0-3.815 0.268-5.034 0.752-1.113 0.433-1.961 1.134-2.491 1.89-0.583 0.918-0.901 2.375-0.901 4.261 0 2.269 0.477 4.856 1.537 7.609l102.696 269.907c2.861 7.554 8.796 14.624 15.95 19.803 6.836 5.073 14.625 8.149 21.567 8.149h513.423l99.781-312.426h-155.526c-10.862 18.184-23.843 34.911-38.577 49.857-47.427 48.242-112.711 78.025-184.934 78.025-72.174 0-137.511-29.893-184.832-78.025h-0.053c-14.625-14.891-27.608-31.618-38.524-49.802zM369.396 242.224c-2.861 9.982-13.141 15.702-22.945 12.735-9.803-2.914-15.42-13.382-12.506-23.365l20.613-71.011c2.332-8.202 9.75-13.544 17.752-13.544v-0.054h71.538c23.899 0 45.623 10.036 61.416 26.008l0.051 0.054v-0.054c15.738 16.026 25.541 38.203 25.541 62.593 0 24.336-9.803 46.567-25.541 62.593-15.738 16.080-37.518 26.008-61.468 26.008h-98.404l-13.989 47.862c-2.914 9.982-13.248 15.648-23.051 12.68-9.803-3.022-15.367-13.49-12.453-23.472l17.646-60.165c1.855-8.418 9.22-14.677 18.070-14.677h112.182c13.722 0 26.23-5.72 35.293-14.947 9.007-9.227 14.675-21.908 14.675-35.883s-5.616-26.656-14.675-35.883v-0.054c-9.011-9.173-21.571-14.893-35.293-14.893h-57.761l-16.692 57.467zM680.078 754.948h-501.288c-14.731 0-30.204-5.884-43.134-15.38-12.665-9.334-23.316-22.394-28.827-36.907l-102.696-269.852c-2.809-7.392-4.133-14.568-4.133-21.205 0-9.228 2.49-17.699 7.154-24.877l-0.053-0.054c4.716-7.339 11.552-12.95 20.136-16.35 5.564-2.213 11.817-3.4 18.388-3.4h125.322c-12.453-31.027-19.341-65.021-19.341-100.634 0-73.493 29.304-140.133 76.624-188.264h0.053c47.373-48.186 112.658-78.026 184.83-78.026s137.511 29.84 184.883 78.026c47.376 48.186 76.627 114.771 76.627 188.264 0 35.613-6.892 69.608-19.291 100.634h148.85l15.21-47.592c4.714-14.785 14.994-28.113 27.498-37.556 12.772-9.659 28.298-15.648 43.189-15.648h75.989c10.228 0 18.546 8.472 18.546 18.94 0 10.361-8.267 18.886-18.546 18.886h-75.989c-6.944 0-14.572 3.13-21.197 8.148s-12.028 11.763-14.308 18.94l-151.391 473.602c-4.876 14.517-14.946 27.305-27.081 36.478-12.768 9.767-28.349 15.703-43.24 15.703h-459.214c-10.227 0-18.547-8.472-18.547-18.94s8.32-18.889 18.547-18.889h459.214c6.837 0 14.521-3.237 21.146-8.2 6.463-4.856 11.709-11.386 14.096-18.345l0.264-0.65 11.709-36.852z"></path>
</svg>
