<!-- Generated by IcoMoon.io -->
<svg version="1.1" xmlns="http://www.w3.org/2000/svg" width="1024" height="1024" viewBox="0 0 1024 1024">
<title></title>
<g id="icomoon-ignore">
</g>
<path d="M213.254 277.769l66.296 23.14 66.239-23.14-66.239-98.963-66.296 98.963zM327.291 325.208l-41.18 14.359c-4.469 1.601-9.164 1.436-13.293 0l-41.18-14.359 47.798 71.352 47.855-71.352zM610.402 645.018c-3.052 10.216-14.084 16.069-24.548 13.032-10.464-2.981-16.459-13.694-13.347-23.91l30.602-100.955c2.544-8.338 10.405-13.804 18.948-13.804v-0.11h106.063c33.375 0 63.693 13.308 85.697 34.792l1.189 1.213c21.268 21.429 34.446 50.475 34.446 82.397 0 32.583-13.686 62.24-35.635 83.665-22.004 21.484-52.382 34.851-85.697 34.851h-151.654l-22.402 73.393c-3.107 10.216-14.139 15.959-24.604 12.922s-16.404-13.808-13.292-24.025l26.246-86.040c2.036-8.562 9.897-14.966 19.287-14.966h166.361c22.402 0 42.878-9.003 57.698-23.469 14.82-14.47 24.040-34.406 24.040-56.387 0-21.48-8.767-41.031-23.020-55.335l-1.020-0.996c-14.82-14.466-35.241-23.469-57.698-23.469h-91.297l-26.36 87.201zM880.735 458.023c-55.776-54.449-132.876-88.192-218.006-88.192-85.134 0-162.288 33.688-218.006 88.192-55.775 54.398-90.28 129.725-90.28 212.838 0 83.172 34.505 158.389 90.28 212.838v0.11c55.717 54.398 132.872 88.084 218.006 88.084 84.736 0 161.438-33.355 217.045-87.146l0.961-1.048c55.773-54.449 90.336-129.725 90.336-212.838 0-82.672-34.111-157.613-89.261-211.897l-1.075-0.941zM505.021 368.007c4.301-11.542 7.751-23.525 10.181-35.785 2.773-14.248 4.246-29.104 4.246-44.512 0-64.724-26.813-123.264-70.199-165.622l-0.059-0.054c-43.386-42.358-103.401-68.534-169.696-68.534s-126.256 26.232-169.698 68.534c-43.386 42.413-70.255 100.952-70.255 165.676s26.869 123.264 70.255 165.677c43.386 42.358 103.403 68.588 169.698 68.588 14.933 0 29.245-1.268 42.764-3.588 11.653-2.044 23.023-4.97 34.109-8.617 16.121-29.156 36.541-55.832 60.355-79.080 25.738-25.186 55.493-46.336 88.3-62.683zM335.55 555l-6.335 1.162c-16.46 2.871-33.091 4.415-49.722 4.415-77.156 0-147.072-30.594-197.642-79.967-50.57-49.369-81.851-117.628-81.851-192.955 0-75.272 31.281-143.531 81.851-192.902l0.057-0.056c50.57-49.371 120.429-79.911 197.585-79.911 77.1 0 146.96 30.54 197.585 79.966l0.055 0.056c50.574 49.427 81.853 117.575 81.853 192.847 0 17.506-1.753 34.846-5.033 51.745-0.622 3.148-1.304 6.241-2.036 9.333 34.788-11.376 72.066-17.561 110.753-17.561 96.051 0 183.048 37.995 246.008 99.518l1.13 1.158c62.338 61.408 100.801 145.904 100.801 239.013 0 93.775-38.975 178.712-101.931 240.23l-1.189 1.107c-62.842 60.857-149.39 98.41-244.819 98.41-95.992 0-182.989-38.049-245.949-99.572l-0.055 0.055c-62.958-61.464-101.932-146.4-101.932-240.23 0.057-40.7 7.41-79.687 20.816-115.862zM161.157 704.827c-7.749-7.566-7.749-19.771 0-27.337s20.251-7.566 28 0l90.223 88.084c7.749 7.566 7.749 19.771 0 27.337l-90.223 88.084c-7.749 7.566-20.25 7.566-28 0-7.749-7.511-7.749-19.716 0-27.282l56.396-55.115h-12.614c-55.491 0-106.005-22.142-142.603-57.876-36.598-35.73-59.281-84.992-59.281-139.225v-37.994c0-10.657 8.881-19.326 19.798-19.326s19.798 8.613 19.798 19.326v37.994c0 43.575 18.271 83.172 47.685 111.833 29.414 28.774 69.972 46.557 114.546 46.557h12.614l-56.34-55.060zM732.585 181.899c7.751 7.566 7.751 19.77 0 27.336-7.747 7.511-20.248 7.511-27.999 0l-90.222-88.138c-7.751-7.566-7.751-19.772 0-27.338l90.222-88.084c7.751-7.566 20.252-7.566 27.999 0 7.751 7.566 7.751 19.772 0 27.338l-56.45 55.114h12.615c55.489 0 106.004 22.146 142.6 57.876 36.545 35.675 59.282 84.991 59.282 139.223v37.94c0 10.658-8.881 19.383-19.799 19.383s-19.799-8.669-19.799-19.383v-37.94c0-43.573-18.271-83.169-47.683-111.887-29.416-28.717-69.971-46.554-114.601-46.554h-12.615l56.45 55.114zM296.067 132.914l0.056 0.109 0.113 0.167 96.954 144.911 0.113 0.276 0.113 0.165 0.736 1.491 0.11 0.221v0.109l0.173 0.332v0.056l0.055 0.276 0.055 0.221v0.109l0.114 0.332 0.398 1.436 0.055 0.276 0.055 0.165 0.114 0.497 0.055 0.386v0.111l0.169 1.215v0.386c0.114 1.491 0.059 2.982-0.169 4.473v0.056l-0.394 1.768v0.165l-0.169 0.662v0.111l-0.059 0.221-0.055 0.276-0.055 0.109-0.114 0.332-0.114 0.276v0.109l-0.055 0.276-0.284 0.607-0.114 0.332-0.055 0.111-0.453 0.827v0.056l-0.169 0.276-0.057 0.109-0.113 0.167-0.113 0.275v0.056l-0.396 0.608-0.057 0.109-0.226 0.388-96.219 143.75c-5.94 8.893-18.271 11.378-27.378 5.577-2.376-1.489-4.299-3.423-5.77-5.577l-0.057-0.11-0.056-0.165-96.728-144.635-0.169-0.33-0.057-0.111-0.057-0.165-0.113-0.221-0.057-0.111-0.339-0.662-0.057-0.109-0.113-0.221-0.057-0.223-0.057-0.109-0.113-0.276v-0.109l-0.113-0.332v-0.056l-0.113-0.276-0.057-0.109-0.056-0.221-0.113-0.221v-0.111l-0.056-0.386-0.057-0.332-0.056-0.11-0.057-0.221-0.057-0.276v-0.111l-0.056-0.33v-0.056l-0.113-0.608-0.056-0.276v-0.442l-0.057-0.386-0.057-0.608v-0.442c-0.226-2.43 0.057-4.969 0.905-7.454v-0.167l0.057-0.165 0.057-0.276c0.339-0.939 0.735-1.767 1.188-2.595l0.056-0.11 0.113-0.221 0.113-0.223v-0.054l0.735-1.159 0.283-0.388 96.106-143.586c5.94-8.891 18.271-11.375 27.378-5.577 1.867 1.657 3.79 3.534 5.261 5.688z"></path>
</svg>
