<svg width="150" height="150
" viewBox="0 0 512 512" fill="none" xmlns="http://www.w3.org/2000/svg">
<rect x="0.5" y="0.5" width="511" height="511" rx="29.5" fill="#348FDE" stroke="#348FDE"/>
<path d="M249.559 262.469L244.014 263.887L249.455 282.873L255 281.455C263.301 279.333 264.869 275.131 263.074 268.867C261.279 262.602 257.86 260.347 249.559 262.469Z" stroke="white" stroke-miterlimit="10"/>
<path d="M226.181 191.744C212.229 195.309 199.71 202.702 190.206 212.988C180.702 223.275 174.641 235.992 172.789 249.533C170.937 263.073 173.377 276.829 179.801 289.059C186.225 301.29 196.344 311.446 208.879 318.243C221.413 325.041 235.8 328.174 250.22 327.247C264.64 326.32 278.445 321.375 289.889 313.036C301.333 304.698 309.903 293.34 314.514 280.4C319.125 267.461 319.57 253.52 315.793 240.341C310.73 222.672 298.445 207.627 281.64 198.513C264.835 189.4 244.886 186.965 226.181 191.744ZM261.572 315.243C249.674 318.289 237.087 317.933 225.404 314.221C213.72 310.508 203.464 303.606 195.934 294.387C188.403 285.167 183.936 274.046 183.097 262.428C182.259 250.81 185.086 239.219 191.222 229.119C197.358 219.02 206.527 210.866 217.569 205.69C228.611 200.513 241.03 198.547 253.256 200.038C265.481 201.53 276.963 206.413 286.251 214.07C295.538 221.727 302.212 231.814 305.43 243.055C309.706 258.115 307.489 274.162 299.265 287.681C291.042 301.2 277.482 311.09 261.555 315.184L261.572 315.243Z" stroke="white" stroke-miterlimit="10"/>
<path d="M253.735 242.237C252.154 236.717 248.81 234.665 241.486 236.538L236.54 237.803L241.311 254.453L246.257 253.188C253.487 251.34 255.317 247.757 253.735 242.237Z" stroke="white" stroke-miterlimit="10"/>
<path d="M230.112 205.464C219.033 208.294 209.091 214.164 201.543 222.332C193.996 230.5 189.182 240.599 187.711 251.352C186.239 262.105 188.177 273.028 193.278 282.741C198.379 292.453 206.414 300.519 216.368 305.917C226.321 311.315 237.746 313.804 249.197 313.068C260.648 312.332 271.611 308.405 280.699 301.783C289.787 295.162 296.593 286.143 300.254 275.867C303.916 265.591 304.27 254.521 301.271 244.055C297.235 230.034 287.477 218.097 274.137 210.863C260.798 203.628 244.965 201.686 230.112 205.464ZM265.376 286.516L268.787 298.419L261.668 300.24L258.401 288.842L251.786 290.534L255.048 301.917L247.928 303.737L244.662 292.34L228.769 296.404L226.211 287.476L229.361 286.67C230.018 286.398 230.562 285.929 230.908 285.335C231.255 284.741 231.384 284.056 231.277 283.386L220.446 245.592C220.181 244.962 219.703 244.432 219.087 244.085C218.471 243.737 217.751 243.591 217.038 243.669L213.888 244.475L211.329 235.547L227.191 231.491L223.908 220.034L231.027 218.213L234.311 229.67L240.926 227.978L237.664 216.596L244.784 214.775L248.195 226.679C259.852 225.295 267.198 228.75 269.68 237.41C271.872 245.058 268.343 249.969 260.358 253.783L260.456 254.125C270.685 253.011 277.424 256.174 279.778 264.387C282.618 274.297 276.969 281.842 265.344 286.524L265.376 286.516Z" stroke="white" stroke-miterlimit="10"/>
<mask id="mask0_1_85" style="mask-type:alpha" maskUnits="userSpaceOnUse" x="316" y="0" width="196" height="150">
<rect x="316.5" y="1.44465" width="195" height="147.31" fill="white" stroke="white"/>
</mask>
<g mask="url(#mask0_1_85)">
<path d="M436.068 81.2526L450.996 -12.1947L482.909 64.6416L436.068 81.2526Z" stroke="white" stroke-miterlimit="10"/>
<path d="M436.068 81.2528L397.947 50.4864L450.996 -12.1945" stroke="white" stroke-miterlimit="10"/>
<path d="M397.948 50.487L442.305 38.645L482.909 64.6423" stroke="white" stroke-miterlimit="10"/>
<path d="M398.001 58.0953L435.459 88.471L481.479 70.8356L429.871 121.667L398.001 58.0953Z" stroke="white" stroke-miterlimit="10"/>
<path d="M435.459 88.4707L430.148 121.711" stroke="white" stroke-miterlimit="10"/>
<path d="M400.283 50.8601C400.357 50.3952 400.292 49.9186 400.095 49.4909C399.898 49.0632 399.579 48.7035 399.177 48.4575C398.776 48.2115 398.31 48.0902 397.84 48.109C397.369 48.1278 396.915 48.2859 396.534 48.5632C396.154 48.8404 395.864 49.2244 395.702 49.6665C395.54 50.1086 395.513 50.5889 395.624 51.0464C395.735 51.504 395.98 51.9182 396.327 52.2367C396.673 52.5551 397.107 52.7634 397.572 52.8352C397.88 52.8844 398.195 52.8722 398.498 52.7995C398.801 52.7267 399.086 52.5948 399.338 52.4112C399.59 52.2277 399.803 51.9962 399.965 51.73C400.128 51.4638 400.235 51.1682 400.283 50.8601Z" stroke="white" stroke-miterlimit="10"/>
<path d="M438.509 80.7237C438.58 80.2619 438.513 79.7893 438.316 79.3657C438.119 78.942 437.801 78.5862 437.401 78.3432C437.002 78.1001 436.54 77.9807 436.074 78C435.607 78.0193 435.156 78.1765 434.778 78.4516C434.401 78.7268 434.113 79.1076 433.952 79.5461C433.79 79.9845 433.762 80.461 433.871 80.9153C433.98 81.3697 434.222 81.7815 434.565 82.0989C434.907 82.4163 435.337 82.625 435.798 82.6987C436.106 82.7479 436.42 82.7358 436.723 82.663C437.026 82.5902 437.312 82.4583 437.564 82.2747C437.816 82.0912 438.029 81.8597 438.191 81.5935C438.353 81.3273 438.461 81.0317 438.509 80.7237Z" stroke="white" stroke-miterlimit="10"/>
<path d="M485.244 65.0157C485.321 64.5506 485.258 64.0731 485.063 63.644C484.868 63.2148 484.55 62.8534 484.149 62.6054C483.748 62.3575 483.282 62.2344 482.811 62.2516C482.34 62.2689 481.885 62.4257 481.503 62.7023C481.121 62.9789 480.83 63.3627 480.667 63.8049C480.504 64.2472 480.476 64.728 480.587 65.1862C480.697 65.6444 480.942 66.0594 481.289 66.3785C481.636 66.6975 482.07 66.9062 482.535 66.9781C483.155 67.0771 483.788 66.9259 484.296 66.5579C484.804 66.1898 485.145 65.6351 485.244 65.0157Z" stroke="white" stroke-miterlimit="10"/>
<path d="M437.317 87.291C437.391 86.8265 437.326 86.3505 437.13 85.9232C436.933 85.4958 436.615 85.1362 436.214 84.89C435.813 84.6437 435.349 84.5218 434.879 84.5396C434.409 84.5574 433.955 84.7142 433.574 84.9902C433.193 85.2661 432.902 85.6488 432.739 86.0898C432.576 86.5308 432.547 87.0104 432.656 87.4679C432.765 87.9253 433.007 88.3402 433.352 88.6599C433.697 88.9796 434.129 89.1898 434.594 89.264C434.902 89.315 435.218 89.3043 435.522 89.2325C435.827 89.1608 436.114 89.0293 436.367 88.8458C436.62 88.6623 436.835 88.4304 436.998 88.1635C437.161 87.8966 437.269 87.6001 437.317 87.291Z" stroke="white" stroke-miterlimit="10"/>
<path d="M444.991 39.2544C445.065 38.79 445 38.314 444.804 37.8866C444.608 37.4593 444.289 37.0997 443.888 36.8534C443.488 36.6072 443.023 36.4852 442.553 36.5031C442.083 36.5209 441.629 36.6777 441.248 36.9537C440.867 37.2296 440.577 37.6123 440.413 38.0533C440.25 38.4943 440.221 38.9739 440.33 39.4314C440.439 39.8888 440.682 40.3036 441.027 40.6233C441.372 40.9431 441.803 41.1533 442.268 41.2275C442.576 41.2785 442.892 41.2678 443.197 41.196C443.501 41.1242 443.788 40.9928 444.041 40.8093C444.295 40.6258 444.509 40.3939 444.672 40.127C444.835 39.8601 444.944 39.5635 444.991 39.2544Z" stroke="white" stroke-miterlimit="10"/>
<path d="M483.821 70.9239C483.893 70.4596 483.825 69.9845 483.627 69.5586C483.429 69.1326 483.109 68.7749 482.708 68.5305C482.307 68.2861 481.842 68.1661 481.373 68.1855C480.904 68.2048 480.45 68.3628 480.071 68.6395C479.691 68.9161 479.402 69.299 479.24 69.7398C479.077 70.1807 479.049 70.6597 479.159 71.1165C479.268 71.5733 479.511 71.9874 479.856 72.3065C480.2 72.6256 480.632 72.8354 481.096 72.9096C481.405 72.959 481.721 72.9468 482.026 72.8736C482.331 72.8005 482.618 72.6678 482.871 72.4833C483.125 72.2988 483.339 72.066 483.502 71.7984C483.665 71.5308 483.773 71.2336 483.821 70.9239Z" stroke="white" stroke-miterlimit="10"/>
<path d="M432.215 122.067C432.292 121.602 432.229 121.125 432.034 120.696C431.839 120.267 431.52 119.905 431.119 119.657C430.719 119.409 430.253 119.286 429.782 119.303C429.311 119.321 428.855 119.477 428.474 119.754C428.092 120.031 427.801 120.414 427.638 120.857C427.475 121.299 427.447 121.78 427.557 122.238C427.668 122.696 427.912 123.111 428.259 123.43C428.606 123.749 429.04 123.958 429.506 124.03C430.126 124.129 430.759 123.978 431.267 123.61C431.775 123.242 432.116 122.687 432.215 122.067Z" stroke="white" stroke-miterlimit="10"/>
<path d="M400.139 57.8417C400.21 57.3799 400.143 56.9073 399.946 56.4837C399.749 56.06 399.431 55.7042 399.032 55.4612C398.633 55.2181 398.17 55.0987 397.704 55.118C397.237 55.1373 396.786 55.2945 396.408 55.5696C396.031 55.8448 395.743 56.2256 395.582 56.6641C395.42 57.1025 395.392 57.579 395.501 58.0333C395.61 58.4877 395.852 58.8995 396.195 59.2169C396.538 59.5343 396.967 59.743 397.428 59.8167C397.736 59.8659 398.05 59.8538 398.353 59.781C398.656 59.7082 398.942 59.5763 399.194 59.3927C399.446 59.2092 399.659 58.9777 399.821 58.7115C399.983 58.4453 400.091 58.1497 400.139 57.8417Z" stroke="white" stroke-miterlimit="10"/>
</g>
<path d="M208.316 165.822C235.913 165.822 258.284 144.689 258.284 118.62C258.284 92.5511 235.913 71.4179 208.316 71.4179C180.72 71.4179 158.348 92.5511 158.348 118.62C158.348 144.689 180.72 165.822 208.316 165.822Z" stroke="white" stroke-linecap="round" stroke-linejoin="round"/>
<path d="M237.481 146.174C253.586 130.961 253.586 106.295 237.481 91.0817C221.376 75.8683 195.265 75.8683 179.16 91.0817C163.056 106.295 163.056 130.961 179.16 146.174C195.265 161.388 221.376 161.388 237.481 146.174Z" stroke="white" stroke-linecap="round" stroke-linejoin="round"/>
<path d="M208.017 151.237V145.787C203.294 145.603 199.767 144.163 197.45 141.424C195.133 138.685 193.862 134.816 193.638 129.789L202.442 128.165C202.503 129.982 202.753 131.789 203.189 133.559C203.489 134.91 204.17 136.16 205.162 137.174C205.633 137.597 206.19 137.926 206.798 138.142C207.407 138.358 208.055 138.456 208.705 138.43C209.373 138.488 210.045 138.389 210.663 138.143C211.281 137.897 211.825 137.511 212.247 137.018C212.987 135.977 213.359 134.741 213.309 133.488C213.401 131.483 212.809 129.504 211.62 127.841C210.35 126.213 208.885 124.73 207.255 123.421L200.17 117.576C198.936 116.536 197.806 115.392 196.792 114.159C195.823 112.955 195.056 111.616 194.52 110.191C193.946 108.499 193.668 106.729 193.698 104.952C193.596 103.259 193.861 101.564 194.478 99.971C195.095 98.3781 196.05 96.9213 197.285 95.69C199.891 93.366 203.328 92.0552 206.911 92.0188V86.7522H209.901V91.8353C211.92 91.8649 213.903 92.3489 215.685 93.2472C217.145 94.0401 218.381 95.1542 219.287 96.4948C220.206 97.8648 220.883 99.367 221.29 100.942C221.732 102.627 221.997 104.349 222.083 106.082L213.413 107.494C213.337 106.001 213.152 104.515 212.86 103.046C212.688 101.892 212.17 100.809 211.365 99.9259C210.929 99.5271 210.402 99.229 209.823 99.0551C209.245 98.8812 208.632 98.8361 208.032 98.9234C207.368 98.8959 206.705 99.0083 206.093 99.2525C205.48 99.4967 204.933 99.8666 204.49 100.335C203.66 101.308 203.23 102.532 203.279 103.781C203.204 105.38 203.664 106.961 204.594 108.299C205.548 109.537 206.629 110.681 207.823 111.716L214.848 117.491C216.319 118.758 217.688 120.127 218.944 121.586C220.202 123.079 221.21 124.745 221.933 126.527C222.726 128.521 223.111 130.639 223.069 132.768C223.106 134.941 222.593 137.09 221.574 139.038C220.63 140.845 219.197 142.384 217.419 143.499C215.496 144.671 213.301 145.383 211.022 145.575V151.096L208.017 151.237Z" stroke="white" stroke-linecap="round" stroke-linejoin="round"/>
<path d="M252.074 103.14C252.262 94.635 259.478 87.9883 267.97 88.4982L424.442 97.8948C432.363 98.3704 438.543 104.933 438.543 112.868V226.615C438.543 234.9 431.827 241.615 423.543 241.615H264.351C255.937 241.615 249.169 234.696 249.355 226.284L252.074 103.14Z" fill="#348FDE"/>
<path d="M427.648 93.5933H415.703V69.9329C415.703 62.0967 412.195 54.7844 406.068 49.8868C399.94 44.9892 392.066 43.1592 384.412 44.8905L260.726 72.6664C255.028 73.92 249.932 77.0887 246.287 81.6442C242.642 86.1998 240.668 91.867 240.695 97.7012V226.71C240.703 233.512 243.409 240.034 248.219 244.844C253.029 249.653 259.55 252.359 266.353 252.367H427.648C434.45 252.359 440.971 249.653 445.781 244.844C450.591 240.034 453.297 233.512 453.305 226.71V119.258C453.297 112.455 450.591 105.933 445.782 101.122C440.972 96.3108 434.451 93.6033 427.648 93.5933ZM438.119 226.71C438.117 229.486 437.013 232.149 435.049 234.112C433.086 236.075 430.424 237.179 427.648 237.181H266.353C263.576 237.179 260.914 236.075 258.951 234.112C256.987 232.149 255.884 229.486 255.882 226.71V97.7012C255.882 92.7656 259.238 88.5666 264.052 87.4808L387.745 59.7048C390.828 58.9986 394.078 59.7428 396.584 61.7474C399.082 63.7444 400.517 66.7285 400.517 69.9329V93.6009H285.89C283.876 93.6009 281.945 94.4009 280.521 95.8249C279.097 97.2489 278.297 99.1803 278.297 101.194C278.297 103.208 279.097 105.139 280.521 106.563C281.945 107.987 283.876 108.787 285.89 108.787H427.648C430.424 108.789 433.086 109.893 435.049 111.856C437.013 113.82 438.117 116.482 438.119 119.258V226.71Z" fill="white"/>
<path d="M376.337 163.068H353.257V139.988C353.257 136.532 350.455 133.731 347 133.731C343.545 133.731 340.743 136.532 340.743 139.988V163.068H317.663C314.208 163.068 311.407 165.869 311.407 169.324C311.407 172.78 314.208 175.581 317.663 175.581H340.743V198.661C340.743 202.116 343.545 204.917 347 204.917C350.455 204.917 353.257 202.116 353.257 198.661V175.581H376.337C379.792 175.581 382.593 172.78 382.593 169.324C382.593 165.869 379.792 163.068 376.337 163.068Z" fill="#0A0F28"/>
</svg>
