<svg width="150" height="150" viewBox="0 0 512 512" fill="none" xmlns="http://www.w3.org/2000/svg">
<g filter="url(#filter0_d_1_43)">
<rect x="4" width="512" height="512" rx="30" fill="#0A0F28"/>
<path d="M253.559 262.469L248.015 263.887L253.455 282.873L259 281.455C267.301 279.333 268.869 275.131 267.074 268.867C265.279 262.602 261.86 260.347 253.559 262.469Z" stroke="white" stroke-miterlimit="10"/>
<path d="M230.181 191.744C216.229 195.309 203.71 202.702 194.206 212.988C184.702 223.275 178.641 235.992 176.789 249.533C174.937 263.073 177.377 276.829 183.801 289.059C190.225 301.29 200.344 311.446 212.879 318.243C225.413 325.041 239.8 328.174 254.22 327.247C268.64 326.32 282.445 321.375 293.889 313.036C305.333 304.697 313.903 293.34 318.514 280.4C323.125 267.461 323.57 253.52 319.793 240.341C314.73 222.672 302.445 207.627 285.64 198.513C268.835 189.4 248.886 186.965 230.181 191.744ZM265.572 315.243C253.674 318.289 241.087 317.933 229.404 314.221C217.72 310.508 207.464 303.606 199.934 294.387C192.403 285.167 187.936 274.046 187.097 262.428C186.259 250.81 189.086 239.219 195.222 229.119C201.358 219.02 210.527 210.866 221.569 205.69C232.611 200.513 245.03 198.547 257.256 200.038C269.481 201.53 280.964 206.413 290.251 214.07C299.538 221.727 306.212 231.814 309.43 243.055C313.706 258.115 311.489 274.162 303.265 287.681C295.042 301.2 281.482 311.09 265.555 315.184L265.572 315.243Z" stroke="white" stroke-miterlimit="10"/>
<path d="M257.736 242.237C256.154 236.717 252.81 234.665 245.486 236.538L240.54 237.803L245.311 254.453L250.257 253.188C257.487 251.34 259.317 247.757 257.736 242.237Z" stroke="white" stroke-miterlimit="10"/>
<path d="M234.112 205.464C223.033 208.294 213.091 214.164 205.543 222.332C197.996 230.5 193.182 240.599 191.711 251.352C190.239 262.105 192.177 273.028 197.278 282.741C202.379 292.453 210.414 300.519 220.368 305.917C230.321 311.315 241.746 313.804 253.197 313.068C264.648 312.332 275.611 308.405 284.699 301.783C293.787 295.162 300.593 286.143 304.254 275.867C307.916 265.591 308.27 254.521 305.271 244.055C301.235 230.034 291.477 218.097 278.137 210.863C264.798 203.628 248.965 201.686 234.112 205.464ZM269.376 286.515L272.787 298.419L265.668 300.24L262.401 288.842L255.786 290.534L259.048 301.916L251.928 303.737L248.662 292.339L232.769 296.404L230.211 287.476L233.361 286.67C234.018 286.398 234.562 285.929 234.908 285.335C235.255 284.741 235.384 284.056 235.277 283.386L224.446 245.592C224.181 244.962 223.703 244.432 223.087 244.085C222.471 243.737 221.751 243.591 221.038 243.669L217.888 244.475L215.329 235.547L231.191 231.491L227.908 220.034L235.027 218.213L238.311 229.67L244.926 227.978L241.664 216.596L248.784 214.775L252.195 226.679C263.852 225.295 271.199 228.75 273.68 237.41C275.872 245.058 272.343 249.969 264.358 253.783L264.456 254.125C274.685 253.011 281.424 256.174 283.778 264.387C286.618 274.297 280.969 281.842 269.345 286.524L269.376 286.515Z" stroke="white" stroke-miterlimit="10"/>
<mask id="mask0_1_43" style="mask-type:alpha" maskUnits="userSpaceOnUse" x="320" y="0" width="196" height="150">
<rect x="320.5" y="1.44465" width="195" height="147.31" fill="white" stroke="white"/>
</mask>
<g mask="url(#mask0_1_43)">
<path d="M440.068 81.2526L454.996 -12.1947L486.909 64.6416L440.068 81.2526Z" stroke="white" stroke-miterlimit="10"/>
<path d="M440.068 81.2528L401.947 50.4864L454.996 -12.1945" stroke="white" stroke-miterlimit="10"/>
<path d="M401.948 50.487L446.305 38.645L486.909 64.6423" stroke="white" stroke-miterlimit="10"/>
<path d="M402.001 58.0953L439.459 88.471L485.479 70.8356L433.871 121.667L402.001 58.0953Z" stroke="white" stroke-miterlimit="10"/>
<path d="M439.459 88.4707L434.148 121.711" stroke="white" stroke-miterlimit="10"/>
<path d="M404.283 50.8601C404.357 50.3952 404.292 49.9186 404.095 49.4909C403.898 49.0632 403.579 48.7035 403.177 48.4575C402.776 48.2115 402.31 48.0902 401.84 48.109C401.369 48.1278 400.915 48.2859 400.534 48.5631C400.154 48.8404 399.864 49.2244 399.702 49.6665C399.54 50.1086 399.513 50.5889 399.624 51.0464C399.735 51.5039 399.98 51.9182 400.327 52.2367C400.673 52.5551 401.107 52.7634 401.572 52.8352C401.88 52.8844 402.195 52.8722 402.498 52.7995C402.801 52.7267 403.086 52.5948 403.338 52.4112C403.59 52.2277 403.803 51.9962 403.965 51.73C404.128 51.4638 404.235 51.1682 404.283 50.8601Z" stroke="white" stroke-miterlimit="10"/>
<path d="M442.509 80.7237C442.58 80.2619 442.513 79.7893 442.316 79.3657C442.119 78.942 441.801 78.5862 441.402 78.3432C441.002 78.1001 440.54 77.9807 440.074 78C439.607 78.0193 439.156 78.1765 438.778 78.4516C438.401 78.7268 438.113 79.1076 437.952 79.5461C437.79 79.9845 437.762 80.461 437.871 80.9153C437.98 81.3697 438.222 81.7815 438.565 82.0989C438.907 82.4163 439.337 82.625 439.798 82.6987C440.106 82.7479 440.42 82.7357 440.723 82.663C441.026 82.5902 441.312 82.4583 441.564 82.2747C441.816 82.0912 442.029 81.8597 442.191 81.5935C442.353 81.3273 442.461 81.0317 442.509 80.7237Z" stroke="white" stroke-miterlimit="10"/>
<path d="M489.244 65.0157C489.321 64.5506 489.258 64.0731 489.063 63.644C488.868 63.2148 488.55 62.8534 488.149 62.6054C487.748 62.3575 487.282 62.2344 486.811 62.2516C486.34 62.2689 485.885 62.4257 485.503 62.7023C485.121 62.9789 484.83 63.3627 484.667 63.8049C484.504 64.2472 484.476 64.728 484.587 65.1862C484.697 65.6444 484.942 66.0594 485.289 66.3785C485.636 66.6975 486.07 66.9062 486.535 66.9781C487.155 67.0771 487.788 66.9259 488.296 66.5579C488.804 66.1898 489.145 65.6351 489.244 65.0157Z" stroke="white" stroke-miterlimit="10"/>
<path d="M441.317 87.291C441.391 86.8265 441.326 86.3505 441.13 85.9232C440.933 85.4958 440.615 85.1362 440.214 84.89C439.813 84.6437 439.349 84.5218 438.879 84.5396C438.409 84.5574 437.955 84.7142 437.574 84.9902C437.193 85.2661 436.902 85.6488 436.739 86.0898C436.576 86.5308 436.547 87.0104 436.656 87.4679C436.765 87.9253 437.007 88.3402 437.352 88.6599C437.697 88.9796 438.129 89.1898 438.594 89.264C438.902 89.315 439.218 89.3043 439.522 89.2325C439.827 89.1608 440.114 89.0293 440.367 88.8458C440.62 88.6623 440.835 88.4304 440.998 88.1635C441.161 87.8966 441.269 87.6001 441.317 87.291Z" stroke="white" stroke-miterlimit="10"/>
<path d="M448.991 39.2544C449.065 38.79 449 38.314 448.804 37.8866C448.608 37.4593 448.289 37.0997 447.888 36.8534C447.488 36.6072 447.023 36.4852 446.553 36.5031C446.083 36.5209 445.629 36.6777 445.248 36.9536C444.867 37.2296 444.577 37.6123 444.413 38.0533C444.25 38.4943 444.221 38.9739 444.33 39.4313C444.439 39.8888 444.682 40.3036 445.027 40.6233C445.372 40.943 445.804 41.1533 446.268 41.2275C446.576 41.2785 446.892 41.2678 447.197 41.196C447.501 41.1242 447.788 40.9928 448.041 40.8093C448.295 40.6258 448.509 40.3939 448.672 40.127C448.835 39.8601 448.944 39.5635 448.991 39.2544Z" stroke="white" stroke-miterlimit="10"/>
<path d="M487.821 70.9239C487.893 70.4596 487.825 69.9845 487.627 69.5586C487.429 69.1326 487.109 68.7749 486.708 68.5305C486.307 68.2861 485.842 68.1661 485.373 68.1855C484.904 68.2048 484.45 68.3628 484.071 68.6395C483.691 68.9161 483.402 69.299 483.24 69.7398C483.077 70.1807 483.049 70.6597 483.159 71.1165C483.268 71.5733 483.511 71.9874 483.856 72.3065C484.2 72.6256 484.632 72.8354 485.096 72.9095C485.405 72.959 485.721 72.9468 486.026 72.8736C486.331 72.8005 486.618 72.6678 486.871 72.4833C487.125 72.2988 487.339 72.066 487.502 71.7984C487.665 71.5308 487.773 71.2336 487.821 70.9239Z" stroke="white" stroke-miterlimit="10"/>
<path d="M436.215 122.067C436.292 121.602 436.229 121.125 436.034 120.696C435.839 120.267 435.52 119.905 435.119 119.657C434.719 119.409 434.253 119.286 433.782 119.303C433.311 119.321 432.855 119.477 432.474 119.754C432.092 120.031 431.801 120.414 431.638 120.857C431.475 121.299 431.447 121.78 431.557 122.238C431.668 122.696 431.912 123.111 432.259 123.43C432.606 123.749 433.04 123.958 433.506 124.03C434.126 124.129 434.759 123.978 435.267 123.61C435.775 123.242 436.116 122.687 436.215 122.067Z" stroke="white" stroke-miterlimit="10"/>
<path d="M404.139 57.8416C404.21 57.3799 404.143 56.9073 403.946 56.4837C403.749 56.06 403.431 55.7042 403.032 55.4612C402.633 55.2181 402.17 55.0987 401.704 55.118C401.237 55.1373 400.786 55.2945 400.408 55.5696C400.031 55.8448 399.743 56.2256 399.582 56.6641C399.42 57.1025 399.392 57.579 399.501 58.0333C399.61 58.4876 399.852 58.8995 400.195 59.2169C400.538 59.5343 400.967 59.743 401.428 59.8167C401.736 59.8659 402.05 59.8537 402.353 59.781C402.656 59.7082 402.942 59.5763 403.194 59.3927C403.446 59.2092 403.659 58.9777 403.821 58.7115C403.983 58.4453 404.091 58.1497 404.139 57.8416Z" stroke="white" stroke-miterlimit="10"/>
</g>
<path d="M212.316 165.822C239.913 165.822 262.284 144.689 262.284 118.62C262.284 92.5511 239.913 71.4179 212.316 71.4179C184.72 71.4179 162.348 92.5511 162.348 118.62C162.348 144.689 184.72 165.822 212.316 165.822Z" stroke="white" stroke-linecap="round" stroke-linejoin="round"/>
<path d="M241.481 146.174C257.586 130.961 257.586 106.295 241.481 91.0817C225.376 75.8683 199.265 75.8683 183.16 91.0817C167.056 106.295 167.056 130.961 183.16 146.174C199.265 161.388 225.376 161.388 241.481 146.174Z" stroke="white" stroke-linecap="round" stroke-linejoin="round"/>
<path d="M212.017 151.237V145.787C207.294 145.603 203.767 144.163 201.45 141.424C199.133 138.685 197.862 134.816 197.638 129.789L206.442 128.165C206.503 129.982 206.753 131.789 207.189 133.559C207.489 134.91 208.17 136.16 209.162 137.174C209.633 137.597 210.19 137.926 210.798 138.142C211.407 138.358 212.055 138.456 212.705 138.43C213.373 138.488 214.045 138.389 214.663 138.143C215.281 137.897 215.825 137.511 216.247 137.018C216.987 135.977 217.359 134.741 217.309 133.488C217.401 131.483 216.809 129.503 215.62 127.841C214.35 126.213 212.885 124.73 211.255 123.421L204.17 117.576C202.936 116.536 201.806 115.392 200.792 114.159C199.823 112.955 199.056 111.616 198.52 110.191C197.946 108.499 197.668 106.729 197.698 104.952C197.596 103.259 197.861 101.564 198.478 99.971C199.095 98.3781 200.05 96.9213 201.285 95.6899C203.891 93.366 207.328 92.0552 210.911 92.0188V86.7522H213.901V91.8353C215.92 91.8649 217.903 92.3489 219.685 93.2472C221.145 94.0401 222.381 95.1542 223.287 96.4948C224.206 97.8648 224.883 99.367 225.29 100.942C225.732 102.627 225.997 104.349 226.083 106.082L217.413 107.494C217.337 106.001 217.152 104.515 216.86 103.046C216.688 101.892 216.17 100.809 215.365 99.9259C214.929 99.527 214.402 99.229 213.823 99.0551C213.245 98.8812 212.632 98.8361 212.032 98.9234C211.368 98.8958 210.705 99.0083 210.093 99.2525C209.48 99.4967 208.932 99.8666 208.49 100.335C207.66 101.308 207.23 102.532 207.279 103.781C207.204 105.38 207.664 106.961 208.594 108.299C209.548 109.537 210.629 110.681 211.823 111.716L218.848 117.491C220.319 118.758 221.688 120.127 222.944 121.586C224.202 123.079 225.21 124.745 225.933 126.527C226.726 128.521 227.111 130.639 227.069 132.768C227.106 134.941 226.593 137.09 225.574 139.037C224.63 140.845 223.197 142.384 221.419 143.499C219.496 144.671 217.301 145.383 215.022 145.575V151.096L212.017 151.237Z" stroke="white" stroke-linecap="round" stroke-linejoin="round"/>
<path d="M259.665 111.394C259.853 102.889 267.068 96.2426 275.56 96.7525L437.408 106.472C445.329 106.947 451.509 113.51 451.509 121.445V239.319C451.509 247.603 444.793 254.319 436.509 254.319H271.844C263.43 254.319 256.661 247.399 256.847 238.987L259.665 111.394Z" fill="#0A0F28"/>
<path d="M432.012 93.6547H420.068V69.9943C420.068 62.1581 416.56 54.8458 410.432 49.9482C404.305 45.0506 396.43 43.2206 388.776 44.9519L265.091 72.7278C259.393 73.9814 254.296 77.1501 250.651 81.7057C247.006 86.2612 245.033 91.9284 245.06 97.7626V226.771C245.068 233.574 247.774 240.095 252.584 244.905C257.394 249.715 263.915 252.421 270.717 252.429H432.012C438.815 252.421 445.336 249.715 450.146 244.905C454.956 240.095 457.662 233.574 457.67 226.771V119.32C457.662 112.517 454.956 105.995 450.146 101.183C445.337 96.3722 438.815 93.6648 432.012 93.6547ZM442.483 226.771C442.481 229.548 441.377 232.21 439.414 234.173C437.451 236.136 434.789 237.24 432.012 237.242H270.717C267.941 237.24 265.279 236.136 263.315 234.173C261.352 232.21 260.248 229.548 260.246 226.771V97.7626C260.246 92.827 263.602 88.628 268.417 87.5422L392.11 59.7662C395.193 59.06 398.443 59.8042 400.948 61.8088C403.447 63.8058 404.882 66.7899 404.882 69.9943V93.6623H290.255C288.241 93.6623 286.309 94.4623 284.885 95.8863C283.461 97.3103 282.661 99.2417 282.661 101.256C282.661 103.269 283.461 105.201 284.885 106.625C286.309 108.049 288.241 108.849 290.255 108.849H432.012C434.789 108.851 437.451 109.955 439.414 111.918C441.377 113.881 442.481 116.543 442.483 119.32V226.771Z" fill="white"/>
<path d="M347.315 206.117C347.811 206.592 348.396 206.965 349.037 207.213C349.662 207.489 350.338 207.632 351.021 207.632C351.704 207.632 352.38 207.489 353.005 207.213C353.645 206.965 354.231 206.592 354.727 206.117L375.608 185.236C376.591 184.253 377.144 182.92 377.144 181.529C377.144 180.139 376.591 178.806 375.608 177.823C374.625 176.84 373.292 176.288 371.902 176.288C370.512 176.288 369.179 176.84 368.196 177.823L356.241 189.83V139.768C356.241 138.383 355.691 137.055 354.712 136.076C353.733 135.097 352.405 134.547 351.021 134.547C349.636 134.547 348.309 135.097 347.33 136.076C346.351 137.055 345.801 138.383 345.801 139.768V189.83L333.846 177.823C333.36 177.336 332.782 176.95 332.146 176.687C331.51 176.423 330.828 176.288 330.14 176.288C329.452 176.288 328.77 176.423 328.134 176.687C327.498 176.95 326.92 177.336 326.434 177.823C325.947 178.31 325.561 178.888 325.297 179.524C325.034 180.16 324.898 180.841 324.898 181.529C324.898 182.218 325.034 182.899 325.297 183.535C325.561 184.171 325.947 184.749 326.434 185.236L347.315 206.117Z" fill="#348FDE"/>
</g>
<defs>
<filter id="filter0_d_1_43" x="0" y="0" width="520" height="520" filterUnits="userSpaceOnUse" color-interpolation-filters="sRGB">
<feFlood flood-opacity="0" result="BackgroundImageFix"/>
<feColorMatrix in="SourceAlpha" type="matrix" values="0 0 0 0 0 0 0 0 0 0 0 0 0 0 0 0 0 0 127 0" result="hardAlpha"/>
<feOffset dy="4"/>
<feGaussianBlur stdDeviation="2"/>
<feComposite in2="hardAlpha" operator="out"/>
<feColorMatrix type="matrix" values="0 0 0 0 0 0 0 0 0 0 0 0 0 0 0 0 0 0 0.25 0"/>
<feBlend mode="normal" in2="BackgroundImageFix" result="effect1_dropShadow_1_43"/>
<feBlend mode="normal" in="SourceGraphic" in2="effect1_dropShadow_1_43" result="shape"/>
</filter>
</defs>
</svg>
