<svg width="210" height="85" viewBox="0 0 577 191" fill="none" xmlns="http://www.w3.org/2000/svg">
<path d="M160.652 60.1581H45.2536C43.8328 60.1581 42.4702 59.5937 41.4656 58.589C40.4609 57.5843 39.8965 56.2217 39.8965 54.8009C39.8965 53.3801 40.4609 52.0175 41.4656 51.0129C42.4702 50.0082 43.8328 49.4438 45.2536 49.4438H139.389V29.3545C139.389 26.4992 138.109 23.8367 135.88 22.0527C134.785 21.1739 133.506 20.5537 132.138 20.2383C130.77 19.9229 129.348 19.9205 127.979 20.2313L27.2965 42.8384C25.2213 43.2972 23.3657 44.4526 22.0383 46.1124C20.7108 47.7722 19.9916 49.8363 20.0001 51.9616V156.978C20.0001 162.131 24.1947 166.331 29.3483 166.331H160.652C165.805 166.331 170 162.137 170 156.978V69.5063C170 64.3527 165.805 60.1581 160.652 60.1581ZM151.985 118.887C146.976 118.887 146.811 118.717 146.811 113.708C146.811 108.699 146.982 108.529 151.985 108.529C157 108.529 157.165 108.699 157.165 113.708C157.165 118.717 157 118.887 151.985 118.887Z" fill="#348FDE"/>
<g clip-path="url(#clip0_57_102)">
<path d="M120.099 62.0621C119.105 66.0537 112.385 63.8965 110.207 63.3552L111.971 56.2794C114.15 56.823 121.138 57.8999 120.099 62.0621H120.099ZM121.093 51.7064C120.187 55.3364 114.593 53.4917 112.779 53.0396L114.379 46.6218C116.194 47.0739 122.037 47.9184 121.093 51.7064Z" fill="white"/>
<path d="M121.614 27.5172C105.923 23.6045 90.0263 33.1569 86.1159 48.8534C82.2009 64.5466 91.7521 80.4435 107.443 84.3573C123.138 88.2712 139.035 78.7189 142.948 63.0246C146.861 47.3291 137.309 31.43 121.614 27.5172ZM108.501 46.4056C108.541 45.7224 108.306 44.8606 107.003 44.5356C107.054 44.5024 104.669 43.9554 104.669 43.9554L105.525 40.5222L109.957 41.6288L109.954 41.646C110.62 41.8108 111.306 41.9687 112.007 42.1278L113.324 36.8487L116.536 37.6498L115.245 42.8259C116.107 43.0227 116.976 43.2207 117.82 43.4313L119.102 38.2906L122.317 39.0917L121.001 44.372C125.059 45.7704 128.027 47.8658 127.444 51.7637C127.021 54.6178 125.44 55.9991 123.34 56.4832C126.224 57.9846 127.691 60.2871 126.292 64.2788C124.557 69.2364 120.436 69.6541 114.955 68.6172L113.625 73.9478L110.41 73.1468L111.723 67.8883C110.89 67.6811 110.038 67.4614 109.162 67.2234L107.844 72.5071L104.633 71.706L105.964 66.3651C105.214 66.1728 104.45 65.9691 103.672 65.7734L99.4892 64.7309L101.085 61.0516C101.085 61.0516 103.453 61.681 103.421 61.6353C104.331 61.8596 104.735 61.2668 104.894 60.8708L108.501 46.4056Z" fill="white"/>
<circle cx="114.531" cy="55.5469" r="27.7344" fill="#0A0F28"/>
<path d="M109.958 55.5629L110.414 37.8955L125.942 46.3344L120.638 55.6046L109.958 55.5629Z" fill="white"/>
<path d="M121.485 57.0713L126.448 47.802L125.062 63.2674L110.793 56.8403L121.485 57.0713Z" fill="white"/>
</g>
<g clip-path="url(#clip1_57_102)">
<path d="M81.0361 62.0621C80.0429 66.0537 73.323 63.8965 71.144 63.3552L72.9087 56.2794C75.0876 56.823 82.0754 57.8999 81.0362 62.0621H81.0361ZM82.0307 51.7064C81.1244 55.3364 75.5305 53.4917 73.7167 53.0396L75.3165 46.6218C77.1315 47.0739 82.9749 47.9184 82.0307 51.7064Z" fill="white"/>
<path d="M82.5513 27.5172C66.8607 23.6045 50.9638 33.1569 47.0534 48.8534C43.1384 64.5466 52.6896 80.4435 68.3804 84.3573C84.0759 88.2712 99.9727 78.7189 103.885 63.0246C107.798 47.3291 98.2468 31.43 82.5513 27.5172ZM69.4388 46.4056C69.4789 45.7224 69.2432 44.8606 67.9408 44.5356C67.9911 44.5024 65.6062 43.9554 65.6062 43.9554L66.4622 40.5222L70.8944 41.6288L70.891 41.646C71.5571 41.8108 72.2437 41.9687 72.9441 42.1278L74.2614 36.8487L77.4737 37.6498L76.1828 42.8259C77.0446 43.0227 77.9132 43.2207 78.7577 43.4313L80.0395 38.2906L83.2541 39.0917L81.938 44.372C85.9961 45.7704 88.9646 47.8658 88.381 51.7637C87.9587 54.6178 86.3772 55.9991 84.2772 56.4832C87.1611 57.9846 88.6282 60.2871 87.2297 64.2788C85.4948 69.2364 81.3738 69.6541 75.8922 68.6172L74.5624 73.9478L71.3477 73.1468L72.6604 67.8883C71.8272 67.6811 70.9758 67.4614 70.0992 67.2234L68.782 72.5071L65.5708 71.706L66.9018 66.3651C66.151 66.1728 65.3877 65.9691 64.6095 65.7734L60.4267 64.7309L62.022 61.0516C62.022 61.0516 64.3909 61.681 64.3589 61.6353C65.2687 61.8596 65.6727 61.2668 65.8317 60.8708L69.4388 46.4056Z" fill="#F79621"/>
<circle cx="75.4689" cy="55.4798" r="19.7983" fill="#F79621"/>
<path d="M86.3305 59.9144C86.2421 58.9794 85.9296 58.1059 85.3985 57.304C84.8596 56.4997 84.0643 55.8072 83.0128 55.2265C84.4966 55.0797 85.7121 54.5697 86.6649 53.7067C87.6177 52.8438 88.2904 51.7426 88.691 50.4057C89.4686 47.8104 89.0542 45.5608 87.4478 43.6568C86.4369 42.454 85.0337 41.4165 83.2381 40.5442L83.4426 40.6055L84.9624 35.5329L81.8402 34.5975L80.3982 39.4105C80.1646 39.3319 79.9365 39.2636 79.6927 39.1906L77.9861 38.6792L79.4259 33.8741L76.3116 32.9409L74.8718 37.7461L66.8816 35.352L65.6822 39.355L68.4294 40.8553L62.7153 59.9265L59.5957 59.6689L58.401 63.6561L66.3913 66.0502L65.1 70.3599L68.2221 71.2954L69.5134 66.9857L71.9278 67.7091L70.6365 72.0188L73.7508 72.9519L75.0775 68.5242C77.5303 68.9763 79.6314 68.886 81.362 68.2303C83.6421 67.3708 85.1969 65.5569 86.0287 62.7808C86.3107 61.8111 86.4087 60.8549 86.3305 59.9144ZM81.2875 46.2248C81.8744 46.9834 81.9848 47.9593 81.6314 49.1389C81.3086 50.2164 80.6695 50.8905 79.722 51.1637C78.7745 51.4369 77.4935 51.3359 75.8813 50.8528L73.1209 50.0258L75.079 43.4904L78.1304 44.4047C79.6506 44.8516 80.7006 45.4662 81.2875 46.2248ZM77.4881 62.8529C76.6515 63.1851 75.5592 63.1406 74.2065 62.7353L69.716 61.3899L71.7731 54.5242L76.594 55.9687C77.4748 56.2326 78.1504 56.5807 78.6129 57.0107C79.0754 57.4407 79.3563 57.9619 79.4556 58.5745C79.5549 59.187 79.4758 59.9089 79.2331 60.7189C78.911 61.8223 78.3325 62.5232 77.4881 62.8529Z" fill="white"/>
</g>
<path d="M31.7188 60.2344H146.172V98.5156H31.7188V60.2344Z" fill="#348FDE"/>
<path d="M70.0606 140.062V83.3425H81.1006V110.302L104.941 83.2625H117.101L95.3406 108.462L118.461 140.062H105.981L88.3006 115.582L81.1006 123.102V140.062H70.0606Z" fill="white"/>
<path d="M205.18 120.266V70.6356H214.84V94.2256L235.7 70.5656H246.34L227.3 92.6156L247.53 120.266H236.61L221.14 98.8456L214.84 105.426V120.266H205.18ZM252.006 120.266V70.5656H261.666V120.266H252.006ZM312.565 120.266V87.6456L299.825 111.936H294.435L281.695 87.6456V120.266H272.035V70.5656H282.395L297.095 98.8456L311.935 70.5656H322.225V120.266H312.565ZM332.602 120.266V70.5656H342.262V111.796H367.602V120.266H332.602Z" fill="black"/>
<path d="M398.36 77.9656H402.32L408.32 93.0856L414.38 77.9656H418.4L410.96 96.1456L419.12 115.406L434.54 77.6656H439.1L421.04 120.266H417.32L408.38 99.2056L399.38 120.266H395.72L377.72 77.6656H382.22L397.7 115.406L405.8 96.1456L398.36 77.9656ZM438.57 111.266C438.57 109.306 439.13 107.626 440.25 106.226C441.37 104.786 442.91 103.686 444.87 102.926C446.87 102.126 449.17 101.726 451.77 101.726C453.29 101.726 454.87 101.846 456.51 102.086C458.15 102.326 459.61 102.686 460.89 103.166V100.526C460.89 97.8856 460.11 95.7856 458.55 94.2256C456.99 92.6656 454.83 91.8856 452.07 91.8856C450.39 91.8856 448.73 92.2056 447.09 92.8456C445.49 93.4456 443.81 94.3456 442.05 95.5456L440.49 92.6656C442.53 91.2656 444.53 90.2256 446.49 89.5456C448.45 88.8256 450.45 88.4656 452.49 88.4656C456.33 88.4656 459.37 89.5656 461.61 91.7656C463.85 93.9656 464.97 97.0056 464.97 100.886V115.346C464.97 115.906 465.09 116.326 465.33 116.606C465.57 116.846 465.95 116.986 466.47 117.026V120.266C466.03 120.306 465.65 120.346 465.33 120.386C465.01 120.426 464.77 120.426 464.61 120.386C463.61 120.346 462.85 120.026 462.33 119.426C461.81 118.826 461.53 118.186 461.49 117.506L461.43 115.226C460.03 117.026 458.21 118.426 455.97 119.426C453.73 120.386 451.45 120.866 449.13 120.866C447.13 120.866 445.31 120.446 443.67 119.606C442.07 118.726 440.81 117.566 439.89 116.126C439.01 114.646 438.57 113.026 438.57 111.266ZM459.51 113.666C459.95 113.106 460.29 112.566 460.53 112.046C460.77 111.526 460.89 111.066 460.89 110.666V106.106C459.53 105.586 458.11 105.186 456.63 104.906C455.19 104.626 453.73 104.486 452.25 104.486C449.33 104.486 446.97 105.066 445.17 106.226C443.37 107.386 442.47 108.966 442.47 110.966C442.47 112.126 442.77 113.226 443.37 114.266C443.97 115.266 444.85 116.106 446.01 116.786C447.17 117.426 448.53 117.746 450.09 117.746C452.05 117.746 453.87 117.366 455.55 116.606C457.27 115.846 458.59 114.866 459.51 113.666ZM473.965 76.4656H478.045V113.186C478.045 114.746 478.325 115.766 478.885 116.246C479.445 116.726 480.125 116.966 480.925 116.966C481.645 116.966 482.365 116.886 483.085 116.726C483.805 116.566 484.425 116.406 484.945 116.246L485.665 119.546C484.905 119.866 483.965 120.126 482.845 120.326C481.765 120.526 480.825 120.626 480.025 120.626C478.185 120.626 476.705 120.086 475.585 119.006C474.505 117.926 473.965 116.446 473.965 114.566V76.4656ZM490.313 76.4656H494.393V113.186C494.393 114.746 494.673 115.766 495.233 116.246C495.793 116.726 496.473 116.966 497.273 116.966C497.993 116.966 498.713 116.886 499.433 116.726C500.153 116.566 500.773 116.406 501.293 116.246L502.013 119.546C501.253 119.866 500.313 120.126 499.193 120.326C498.113 120.526 497.173 120.626 496.373 120.626C494.533 120.626 493.053 120.086 491.933 119.006C490.853 117.926 490.313 116.446 490.313 114.566V76.4656ZM519.98 120.866C517.74 120.866 515.66 120.446 513.74 119.606C511.82 118.726 510.16 117.546 508.76 116.066C507.36 114.546 506.26 112.806 505.46 110.846C504.7 108.886 504.32 106.786 504.32 104.546C504.32 101.626 504.98 98.9456 506.3 96.5056C507.66 94.0656 509.52 92.1256 511.88 90.6856C514.24 89.2056 516.92 88.4656 519.92 88.4656C523 88.4656 525.68 89.2056 527.96 90.6856C530.28 92.1656 532.1 94.1256 533.42 96.5656C534.74 98.9656 535.4 101.606 535.4 104.486C535.4 104.806 535.4 105.126 535.4 105.446C535.4 105.726 535.38 105.946 535.34 106.106H508.58C508.78 108.346 509.4 110.346 510.44 112.106C511.52 113.826 512.9 115.206 514.58 116.246C516.3 117.246 518.16 117.746 520.16 117.746C522.2 117.746 524.12 117.226 525.92 116.186C527.76 115.146 529.04 113.786 529.76 112.106L533.3 113.066C532.66 114.546 531.68 115.886 530.36 117.086C529.04 118.286 527.48 119.226 525.68 119.906C523.92 120.546 522.02 120.866 519.98 120.866ZM508.46 103.166H531.56C531.4 100.886 530.78 98.8856 529.7 97.1656C528.66 95.4456 527.28 94.1056 525.56 93.1456C523.88 92.1456 522.02 91.6456 519.98 91.6456C517.94 91.6456 516.08 92.1456 514.4 93.1456C512.72 94.1056 511.34 95.4656 510.26 97.2256C509.22 98.9456 508.62 100.926 508.46 103.166ZM556.402 118.766C556.082 118.886 555.582 119.106 554.902 119.426C554.222 119.746 553.402 120.026 552.442 120.266C551.482 120.506 550.442 120.626 549.322 120.626C548.162 120.626 547.062 120.406 546.022 119.966C545.022 119.526 544.222 118.866 543.622 117.986C543.022 117.066 542.722 115.946 542.722 114.626V92.2456H538.402V89.0056H542.722V78.4456H546.802V89.0056H554.002V92.2456H546.802V113.486C546.882 114.606 547.282 115.446 548.002 116.006C548.762 116.566 549.622 116.846 550.582 116.846C551.702 116.846 552.722 116.666 553.642 116.306C554.562 115.906 555.122 115.626 555.322 115.466L556.402 118.766Z" fill="black"/>
<defs>
<clipPath id="clip0_57_102">
<rect width="58.5938" height="58.5938" fill="white" transform="translate(85.2344 26.6406)"/>
</clipPath>
<clipPath id="clip1_57_102">
<rect width="58.5938" height="58.5938" fill="white" transform="translate(46.1719 26.6406)"/>
</clipPath>
</defs>
</svg>
