<svg width="512" height="512" viewBox="0 0 512 512" fill="none" xmlns="http://www.w3.org/2000/svg">
<path d="M424.069 169.382H128.649C125.012 169.382 121.524 167.901 118.952 165.265C116.38 162.628 114.935 159.052 114.935 155.324C114.935 151.596 116.38 148.02 118.952 145.383C121.524 142.747 125.012 141.266 128.649 141.266H369.637V88.548C369.637 81.055 366.359 74.0681 360.654 69.3867C357.85 67.0806 354.575 65.453 351.073 64.6254C347.57 63.7978 343.93 63.7915 340.425 64.607L82.679 123.932C77.3665 125.136 72.6162 128.168 69.2179 132.524C65.8197 136.879 63.9784 142.296 64.0002 147.873V423.455C64.0002 436.978 74.7385 448 87.9316 448H424.069C437.262 448 448 436.992 448 423.455V193.914C448 180.39 437.262 169.382 424.069 169.382ZM401.882 323.499C389.059 323.499 388.637 323.051 388.637 309.907C388.637 296.763 389.073 296.315 401.882 296.315C414.719 296.315 415.142 296.763 415.142 309.907C415.142 323.051 414.719 323.499 401.882 323.499Z" fill="#348FDE"/>
<g clip-path="url(#clip0_78_105)">
<path d="M320.252 176.679C317.71 186.898 300.507 181.375 294.928 179.989L299.446 161.875C305.024 163.267 322.913 166.024 320.252 176.679H320.252ZM322.798 150.168C320.478 159.461 306.158 154.739 301.514 153.581L305.61 137.152C310.256 138.309 325.215 140.471 322.798 150.168Z" fill="white"/>
<path d="M324.131 88.2441C283.963 78.2276 243.267 102.681 233.256 142.865C223.234 183.039 247.685 223.735 287.854 233.755C328.034 243.774 368.73 219.32 378.747 179.143C388.763 138.962 364.311 98.2606 324.131 88.2441ZM290.563 136.598C290.666 134.849 290.062 132.643 286.728 131.811C286.857 131.726 280.752 130.326 280.752 130.326L282.943 121.537L294.29 124.37L294.281 124.414C295.986 124.836 297.744 125.24 299.537 125.647L302.909 112.133L311.132 114.183L307.828 127.434C310.034 127.938 312.257 128.445 314.42 128.984L317.701 115.824L325.93 117.875L322.561 131.392C332.95 134.972 340.549 140.336 339.055 150.315C337.974 157.621 333.925 161.158 328.549 162.397C335.932 166.241 339.688 172.135 336.108 182.354C331.667 195.045 321.117 196.114 307.084 193.46L303.679 207.106L295.45 205.056L298.81 191.594C296.678 191.064 294.498 190.501 292.254 189.892L288.882 203.418L280.661 201.367L284.068 187.694C282.146 187.202 280.192 186.681 278.2 186.18L267.492 183.511L271.576 174.092C271.576 174.092 277.641 175.703 277.559 175.586C279.888 176.16 280.922 174.643 281.329 173.629L290.563 136.598Z" fill="white"/>
<circle cx="306" cy="160" r="71" fill="#0A0F28"/>
<path d="M294.293 160.041L295.46 114.812L335.212 136.416L321.634 160.148L294.293 160.041Z" fill="white"/>
<path d="M323.802 163.902L336.508 140.173L332.96 179.764L296.431 163.311L323.802 163.902Z" fill="white"/>
</g>
<g clip-path="url(#clip1_78_105)">
<path d="M220.252 176.679C217.71 186.898 200.507 181.375 194.928 179.989L199.446 161.875C205.024 163.267 222.913 166.024 220.252 176.679H220.252ZM222.798 150.168C220.478 159.461 206.158 154.739 201.514 153.581L205.61 137.152C210.256 138.309 225.215 140.471 222.798 150.168Z" fill="white"/>
<path d="M224.131 88.2441C183.963 78.2276 143.267 102.681 133.256 142.865C123.234 183.039 147.685 223.735 187.854 233.755C228.034 243.774 268.73 219.32 278.747 179.143C288.763 138.962 264.311 98.2606 224.131 88.2441ZM190.563 136.598C190.666 134.849 190.062 132.643 186.728 131.811C186.857 131.726 180.752 130.326 180.752 130.326L182.943 121.537L194.29 124.37L194.281 124.414C195.986 124.836 197.744 125.24 199.537 125.647L202.909 112.133L211.132 114.183L207.828 127.434C210.034 127.938 212.257 128.445 214.42 128.984L217.701 115.824L225.93 117.875L222.561 131.392C232.95 134.972 240.549 140.336 239.055 150.315C237.974 157.621 233.925 161.158 228.549 162.397C235.932 166.241 239.688 172.135 236.108 182.354C231.667 195.045 221.117 196.114 207.084 193.46L203.679 207.106L195.45 205.056L198.81 191.594C196.678 191.064 194.498 190.501 192.254 189.892L188.882 203.418L180.661 201.367L184.068 187.694C182.146 187.202 180.192 186.681 178.2 186.18L167.492 183.511L171.576 174.092C171.576 174.092 177.641 175.703 177.559 175.586C179.888 176.16 180.922 174.643 181.329 173.629L190.563 136.598Z" fill="#F79621"/>
<circle cx="206" cy="159.828" r="50.6836" fill="#F79621"/>
<path d="M233.805 171.181C233.579 168.787 232.779 166.551 231.419 164.498C230.04 162.439 228.004 160.667 225.312 159.18C229.11 158.804 232.222 157.498 234.661 155.289C237.1 153.08 238.823 150.261 239.848 146.839C241.839 140.195 240.778 134.436 236.665 129.561C234.078 126.482 230.485 123.826 225.889 121.593L226.412 121.75L230.303 108.764L222.31 106.37L218.618 118.691C218.02 118.49 217.437 118.315 216.812 118.128L212.444 116.819L216.129 104.518L208.157 102.129L204.471 114.43L184.016 108.301L180.945 118.549L187.979 122.389L173.35 171.212L165.364 170.552L162.306 180.76L182.761 186.889L179.455 197.921L187.448 200.316L190.754 189.283L196.934 191.135L193.629 202.168L201.601 204.557L204.998 193.222C211.277 194.379 216.656 194.148 221.086 192.47C226.923 190.269 230.903 185.626 233.033 178.519C233.755 176.036 234.005 173.588 233.805 171.181ZM220.895 136.135C222.398 138.078 222.68 140.576 221.776 143.596C220.949 146.354 219.313 148.08 216.888 148.779C214.462 149.478 211.183 149.22 207.055 147.983L199.989 145.866L205.002 129.135L212.813 131.476C216.705 132.62 219.393 134.193 220.895 136.135ZM211.169 178.704C209.027 179.554 206.231 179.44 202.768 178.402L191.272 174.958L196.538 157.382L208.88 161.08C211.135 161.755 212.864 162.647 214.048 163.747C215.232 164.848 215.951 166.183 216.206 167.751C216.46 169.319 216.257 171.167 215.636 173.24C214.811 176.065 213.33 177.859 211.169 178.704Z" fill="white"/>
</g>
<path d="M94 172H387V270H94V172Z" fill="#348FDE"/>
<path d="M191.538 395V227.727H226.904V301.481H229.109L289.305 227.727H331.695L269.621 302.624L332.43 395H290.121L244.301 326.229L226.904 347.464V395H191.538Z" fill="white"/>
<defs>
<clipPath id="clip0_78_105">
<rect width="150" height="150" fill="white" transform="translate(231 86)"/>
</clipPath>
<clipPath id="clip1_78_105">
<rect width="150" height="150" fill="white" transform="translate(131 86)"/>
</clipPath>
</defs>
</svg>
