<!-- Generated by IcoMoon.io -->
<svg version="1.1" xmlns="http://www.w3.org/2000/svg" width="1024" height="1024" viewBox="0 0 1024 1024">
    <title></title>
    <g id="icomoon-ignore">
    </g>
    <path
        d="M624 422.4l-142.4 137.6-35.2-35.2c-17.6-17.6-44.8-17.6-62.4 0s-17.6 44.8 0 62.4l62.4 62.4c9.6 9.6 22.4 12.8 35.2 12.8s27.2-4.8 40-12.8l164.8-160c17.6-17.6 17.6-44.8 0-62.4-19.2-17.6-44.8-22.4-62.4-4.8z">
    </path>
    <path
        d="M939.2 369.6c-44.8-49.6-107.2-84.8-172.8-97.6-35.2-57.6-92.8-102.4-155.2-124.8-30.4-12.8-62.4-17.6-97.6-17.6-160 0-294.4 124.8-302.4 280-121.6 17.6-211.2 120-211.2 240 0 134.4 112 244.8 244.8 244.8h462.4c174.4 0 316.8-142.4 316.8-315.2 0-76.8-30.4-152-84.8-209.6zM704 809.6h-464c-89.6 0-155.2-67.2-155.2-155.2s72-155.2 155.2-155.2h52.8v-62.4c0-120 97.6-217.6 217.6-217.6 27.2 0 49.6 4.8 72 12.8 49.6 17.6 92.8 52.8 120 102.4l12.8 22.4 22.4 4.8c52.8 4.8 107.2 30.4 142.4 72 40 44.8 62.4 97.6 62.4 155.2-8 118.4-110.4 220.8-238.4 220.8z">
    </path>
</svg>