
<svg version="1.1" xmlns="http://www.w3.org/2000/svg" width="512" height="1024" viewBox="0 0 512 1024">
<title></title>
<g id="icomoon-ignore">
</g>
<path d="M492.328 686.299c0 58.902-17.876 106.057-53.625 141.469-35.408 35.068-84.268 56.009-146.575 62.819v99.588h-81.204v-99.588c-38.814-4.089-74.053-14.811-105.718-32.176s-57.2-42.902-76.607-76.61c-19.067-34.044-28.6-76.434-28.6-127.166h127.168c0 47.667 11.746 81.883 35.239 102.652 23.493 20.429 52.433 30.643 86.821 30.643 37.112 0 65.712-9.022 85.8-27.067 20.428-18.044 30.643-42.562 30.643-73.545 0-28.939-9.193-52.773-27.579-71.497-18.386-19.068-49.539-36.261-93.461-51.584-47.666-16.344-86.992-34.216-117.975-53.625s-55.157-43.41-72.522-72.009c-17.024-28.603-25.536-63.499-25.536-104.698 0-37.793 7.831-71.33 23.493-100.611 16.003-29.281 38.474-52.774 67.414-70.479s62.818-28.77 101.632-33.196v-111.336h81.714v112.357c58.562 8.171 104.355 32.856 137.382 74.053s49.54 95.844 49.54 163.94h-127.168c0-42.56-9.363-75.927-28.089-100.101-18.386-24.174-44.092-36.261-77.118-36.261-34.048 0-59.583 9.193-76.607 27.579-17.024 18.045-25.536 42.56-25.536 73.543 0 19.407 3.745 36.092 11.236 50.051 7.831 13.619 20.599 26.214 38.303 37.793 17.705 11.235 42.219 22.641 73.543 34.216 48.007 17.364 87.332 35.749 117.974 55.157s54.305 43.41 70.989 72.013c16.684 28.259 25.026 62.815 25.026 103.673z"></path>
</svg>
