
<svg version="1.1" xmlns="http://www.w3.org/2000/svg" width="1626" height="1024" viewBox="0 0 1626 1024">
<title></title>
<g id="icomoon-ignore">
</g>
<path d="M212.559 512.458c0-207.458 112.941-390.509 281.098-495.458h-484.392v988.478h486.902c-170.666-102.508-283.608-285.563-283.608-493.019z"></path>
<path d="M1615.547 17h-486.9c168.159 102.509 281.1 285.56 281.1 495.458 0 209.901-112.941 390.511-281.1 495.459h486.9v-990.917z"></path>
<path d="M890.217 390.429c-5.024-26.847-37.647-43.933-70.277-41.492-27.606 2.441-55.218 7.322-82.824 17.085l27.606 117.153c0 0 52.706-7.322 82.824-26.847s47.688-39.051 42.671-65.899z"></path>
<path d="M855.070 522.23c-27.612 4.881-52.706 9.762-77.806 17.085l30.118 124.472c0 0 82.824-14.643 107.924-31.726 27.606-17.083 57.723-48.813 40.153-82.983-17.565-34.17-67.765-31.729-100.388-26.847z"></path>
<path d="M812.411 29.206c-273.568 0-496.941 214.78-496.941 483.256s223.373 480.813 496.941 480.813c273.571 0 496.941-214.781 496.941-483.253 0-268.475-223.371-480.815-496.941-480.815zM1068.411 627.176c-20.076 51.254-135.529 82.98-135.529 82.98l22.588 92.744-60.235 14.649-22.588-92.75-47.688 9.764 22.588 92.744-60.235 12.204-22.588-92.744-120.471 26.847-5.018-73.222c0 0 22.588-2.44 42.665-7.319 20.082-4.885 20.082-26.847 17.571-36.611s-52.706-219.662-60.235-241.628c-7.529-21.966-30.118-26.847-40.156-26.847-10.039 2.441-42.667 12.204-42.667 12.204l-15.059-61.017 115.453-26.847-22.588-95.187 60.235-14.644 22.588 95.187c17.565-4.881 32.623-7.322 47.682-9.763l-22.588-95.186 60.235-14.644 22.588 95.187c27.612-4.881 77.806-9.763 110.435 2.441 37.647 14.644 62.741 58.576 65.253 95.187 2.512 34.169-35.135 73.22-35.135 73.22s60.235 4.881 85.329 34.17c52.706 65.899 25.1 126.916 17.571 148.884z"></path>
</svg>
