
<svg version="1.1" xmlns="http://www.w3.org/2000/svg" width="778" height="1024" viewBox="0 0 778 1024">
<title></title>
<g id="icomoon-ignore">
</g>
<path d="M617.304 475.142c52.995-26.974 86.153-74.479 78.407-153.62-10.431-108.154-103.896-144.421-221.884-154.749l-0.023-150.019h-91.418l-0.026 146.074c-24.053 0-48.572 0.472-72.98 0.961l-0.020-147.015-91.335-0.009-0.017 149.982c-19.794 0.404-39.233 0.788-58.214 0.788v-0.444l-126.094-0.051 0.017 97.513c0 0 67.51-1.269 66.398-0.037 37.015 0.026 49.101 21.501 52.577 40.038l0.028 170.903v240.063c-1.63 11.634-8.488 30.222-34.369 30.256 1.178 1.035-66.5-0.011-66.5-0.011l-18.133 109.042h118.946c22.164 0.026 43.941 0.37 65.306 0.54l0.080 151.717 91.312 0.026-0.026-150.127c25.122 0.512 49.371 0.734 73.057 0.703l-0.026 149.424h91.415l0.051-151.464c153.663-8.818 261.239-47.494 274.614-191.673 10.78-116.079-43.901-167.893-131.143-188.811zM311.566 271.135c51.558 0 213.709-16.404 213.732 91.204-0.023 103.165-162.122 91.113-213.732 91.113v-182.318zM311.526 746.516l0.040-201.023c61.946-0.017 256.242-17.809 256.267 100.466 0.026 113.425-194.321 100.511-256.307 100.557z"></path>
</svg>
