
<svg version="1.1" xmlns="http://www.w3.org/2000/svg" width="614" height="1024" viewBox="0 0 614 1024">
<title></title>
<g id="icomoon-ignore">
</g>
<path d="M308.739 12.6c0 3.151 0 6.302 0 9.452 0 116.579 0 234.732 0 351.312 0 1.574 0 4.724 0 6.301 0 1.574-1.536 3.151-3.072 3.151-10.752 4.727-19.968 9.452-30.72 14.179-13.824 6.301-29.184 12.602-43.008 20.48-16.896 7.875-33.792 15.753-50.688 23.631-13.824 6.301-27.648 12.602-41.472 18.903-16.896 7.878-33.792 15.756-50.688 23.631-13.824 6.304-27.648 12.605-43.008 20.48-10.752 4.727-23.040 11.028-33.792 15.756-1.536 0-1.536 1.574-3.072 0 0 0 0 0-1.536 0 4.608-7.878 9.216-14.179 13.824-22.057 24.576-42.534 50.688-85.071 75.264-127.604 26.112-45.687 53.76-91.374 79.872-137.060 24.576-42.535 49.152-85.071 73.728-126.031 18.432-31.508 36.864-61.44 53.76-92.948 3.072 0 3.072-1.575 4.608-1.575 0 0-1.536 0 0 0z"></path>
<path d="M606.72 519.868c-23.040 15.753-47.616 29.932-70.656 44.111-75.264 45.687-148.992 89.798-224.256 135.482-1.536 0-1.536 1.577-3.072 1.577s-1.536-1.577-1.536-1.577c0-1.574 0-3.151 0-4.724 0-102.4 0-204.8 0-307.2 0-1.577 0-3.151 0-4.727s1.536-1.577 3.072-1.577c6.144 3.154 12.288 6.304 19.968 9.455 18.432 9.452 38.4 17.329 56.832 26.781 16.896 7.878 32.256 15.753 49.152 22.054 16.896 7.878 32.256 15.756 49.152 23.631 13.824 6.304 29.184 12.605 43.008 20.48 13.824 6.304 29.184 12.605 43.008 20.48 10.752 4.727 21.504 11.028 33.792 15.756 0-1.577 0 0 1.536 0z"></path>
<path d="M308.753 1009.814c-1.536 0 0 0 0 0-1.536 0-1.536 0-3.072-1.577-30.72-44.111-59.904-86.644-90.624-130.755-30.72-44.114-61.44-88.224-92.16-132.335-29.184-42.534-59.904-85.071-89.088-129.181-7.68-11.028-15.36-22.054-23.040-33.082 0-1.577-1.536-1.577-1.536-3.151 1.536 0 1.536 1.574 3.072 1.574 41.472 25.207 84.48 50.415 125.952 75.619 47.616 29.932 96.768 58.289 144.384 88.221 7.68 4.727 16.896 9.455 24.576 14.179 1.536 0 1.536 1.577 1.536 3.151 0 1.577 0 3.151 0 4.727 0 78.769 0 155.962 0 234.732 0 1.577 0 4.727 0 7.878z"></path>
<path d="M9.233 519.868c0 0 1.536 0 0 0 1.536 0 1.536 0 0 0 0 1.574 0 1.574 0 0z"></path>
<path d="M10.75 521.452c0-1.577 0-1.577 0 0 15.36-7.878 30.72-14.179 46.080-22.057 19.968-9.452 39.936-18.903 59.904-28.355 15.36-7.878 30.72-14.179 46.080-22.057 21.504-11.028 44.544-20.48 66.048-31.508 15.36-6.301 30.72-14.176 46.080-20.48 10.752-4.724 21.504-9.452 32.256-15.753 1.536 0 1.536-1.577 3.072-1.577 0 0 0 0 0 1.577s0 1.577 0 3.151c0 103.977 0 207.951 0 311.927 0 1.574 0 3.151 0 4.724-1.536 1.577-1.536 0-3.072 0-4.608-3.151-9.216-4.724-12.288-7.875-93.696-56.716-187.392-113.428-281.088-170.144-1.536-1.574-3.072-1.574-3.072-1.574z"></path>
<path d="M605.198 579.734c0 1.574 0 1.574-1.536 3.151-89.088 129.181-178.176 256.788-267.264 385.969-9.216 14.179-18.432 26.781-27.648 40.96 0 0 0 0 0-1.577 0-1.574 0-1.574 0-3.151 0-80.343 0-160.689 0-241.033 0-1.577 0-3.151 0-4.727 19.968-12.602 39.936-25.204 59.904-36.233 78.336-47.261 156.672-94.525 235.008-141.786 0-1.574 1.536-1.574 1.536-1.574z"></path>
<path d="M308.75 381.249c0-1.577 0-3.151 0-3.151 0-119.73 0-241.035 0-360.764 0-1.575 0-3.151 0-3.151 98.304 166.991 196.608 333.98 294.912 500.974 1.536 1.574 3.072 3.151 3.072 4.724-6.144-3.151-12.288-6.301-19.968-9.452s-15.36-7.878-23.040-11.028c-4.608-1.574-9.216-4.724-15.36-6.301-7.68-3.151-16.896-7.878-24.576-11.028-4.608-1.574-9.216-4.724-13.824-6.301-10.752-4.727-21.504-9.452-32.256-14.179-6.144-3.151-10.752-4.724-16.896-7.875-7.68-3.154-15.36-7.878-23.040-11.028-4.608-1.577-9.216-4.727-13.824-6.301-10.752-4.727-21.504-9.455-32.256-14.179-6.144-3.151-10.752-4.727-16.896-7.878-7.68-3.151-15.36-7.878-23.040-11.028-4.608-3.151-10.752-4.724-15.36-7.875-9.216-4.727-18.432-9.455-27.648-14.179z"></path>
</svg>
