
<svg version="1.1" xmlns="http://www.w3.org/2000/svg" width="1807" height="1024" viewBox="0 0 1807 1024">
<title></title>
<g id="icomoon-ignore">
</g>
<path d="M1806.306 511.202c0.753-12.671 0.753-26.087 0.753-40.249 0-10.872-4.361-21.299-12.131-28.987-7.764-7.688-18.299-12.007-29.28-12.007s-21.516 4.319-29.28 12.007c-7.77 7.688-12.131 18.115-12.131 28.987 0 30.559-0.753 59.628-3.012 86.46-6.024 57.39-24.847 108.078-50.447 134.16-6.030 6.511-13.39 11.668-21.594 15.125s-17.065 5.138-25.979 4.927c-8.915-0.211-17.679-2.313-25.708-6.156s-15.137-9.342-20.835-16.131c-39.906-43.972-51.953-140.869-42.918-213.913 1.060-10.846-2.205-21.674-9.096-30.169-6.897-8.496-16.872-13.985-27.799-15.297-10.957-1.052-21.896 2.179-30.479 9.003s-14.131 16.701-15.456 27.518c-4.144 37.652-4.144 75.64 0 113.293 0 2.981-0.753 6.708-0.753 9.689-18.071 142.359-79.812 172.175-128 172.175-15.39-0.452-30.624-3.217-45.176-8.198l2.259-2.982c46.682-51.429 73.788-119.254 73.788-179.629 0-39.504-11.294-73.044-33.129-97.64s-48.941-43.23-103.906-43.23c-22.389-0.105-44.43 5.539-63.958 16.382-19.534 10.842-35.888 26.513-47.477 45.482-36.894 56.646-39.906 140.87-8.282 210.189 8.451 18.197 19.619 35.027 33.129 49.935-17.625 6.331-36.219 9.608-54.965 9.692-57.976 0-142.306-70.066-190.494-121.495 53.025-41.567 99.695-90.523 138.541-145.34 3.162-4.404 5.421-9.383 6.638-14.651 1.223-5.268 1.385-10.722 0.476-16.052s-2.873-10.429-5.771-15.008c-2.903-4.58-6.68-8.549-11.131-11.681s-9.481-5.366-14.8-6.574c-5.325-1.208-10.83-1.367-16.215-0.467s-10.535 2.841-15.161 5.712c-4.626 2.87-8.638 6.615-11.8 11.019-39.014 55.707-87.407 104.365-143.059 143.852v-120.001c0-10.872-4.367-21.299-12.131-28.987s-18.299-12.007-29.286-12.007c-10.981 0-21.516 4.319-29.28 12.007s-12.131 18.115-12.131 28.987v240.003l-2.259-1.494-5.271-4.469-15.059-11.18-9.788-6.71-4.518-3.729-12.8-8.198-2.259-1.488-16.565-10.439h-0.753l-18.824-11.18-12.8-6.704-3.765-2.241-12.8-7.451-3.765-1.488-15.811-8.204h-0.753l-3.765-2.235-12.047-5.216-16.565-7.451-7.529-3.729-9.788-3.729-5.271-1.49h-1.506l-11.294-5.963c24.901-30.321 47.073-62.743 66.259-96.894 27.135-47.798 46.211-99.66 56.469-153.542 5.319-28.501 6.837-57.568 4.518-86.46-1.47-14.814-3.988-29.509-7.529-43.975-3.283-14.609-8.078-28.846-14.306-42.485-5.813-14.005-12.872-27.473-21.082-40.249-8.179-12.537-17.237-24.492-27.105-35.777l-15.812-15.652-15.812-14.907c-11.412-9.527-23.489-18.245-36.141-26.087-26.010-16.632-54.83-28.498-85.084-35.031-30.263-5.959-61.337-6.715-91.859-2.236-29.773 4.379-58.71 13.173-85.836 26.087-26.47 12.457-51.054 28.513-73.036 47.702-23.018 18.878-42.844 41.271-58.73 66.336-8.767 13.362-16.086 27.603-21.836 42.485-6.198 17.24-9.505 35.368-9.788 53.665 0 13.442 5.395 26.334 14.996 35.839s22.625 14.845 36.204 14.845c13.579 0 26.602-5.34 36.204-14.845s14.996-22.397 14.996-35.839c0.057-6.39 1.334-12.713 3.765-18.633 2.837-8.114 6.628-15.868 11.294-23.106 10.974-16.351 24.145-31.145 39.154-43.975 30.595-26.229 67.809-43.746 107.671-50.684 18.531-2.497 37.35-1.994 55.718 1.491 18.39 4.361 35.938 11.662 51.954 21.615 16.735 10.579 31.934 23.368 45.176 38.013 6.661 7.009 12.473 14.764 17.318 23.106 5.253 8.041 9.788 16.521 13.553 25.342 7.597 17.768 12.177 36.656 13.553 55.901 1.595 20.169 0.583 40.457-3.012 60.373-8.335 42.991-23.859 84.304-45.93 122.237-22.461 39.358-48.953 76.323-79.059 110.311l-4.518 5.218-10.541-1.491-7.529-1.491-10.541-1.491h-18.071l-9.035-1.49-16.565-1.491h-64.001c-12.8 0-25.6 1.491-38.4 2.236h-3.012l-15.812 2.236h-11.294l-7.529 1.491-6.024 1.491-16.565 3.727h-2.259l-18.824 5.217-4.518 1.491-14.306 4.472h-2.259l-3.765 1.491-12.047 5.218-6.776 2.236-12.048 5.963-4.518 1.491h-1.506l-15.812 8.196h-2.259l-4.518 2.982h-5.271l-3.765 2.241c-5.327 3.301-10.365 7.042-15.059 11.18-14.326 11.68-26.163 26.064-34.823 42.315s-13.971 34.039-15.624 52.344c-1.35 12.18-0.842 24.492 1.506 36.521 0.402 1.765 0.904 3.506 1.506 5.216v1.488h0.753c0.151 1.59 0.666 3.114 1.506 4.475 0 1.488 0 2.235 0.753 2.982 0.151 1.584 0.666 3.114 1.506 4.469 0.689 2.361 1.702 4.62 3.012 6.71 1.167 1.638 2.175 3.385 3.012 5.216h0.753c0.048 0.572 0.317 1.108 0.753 1.494 0.837 1.825 1.845 3.572 3.012 5.216 0.753 0.741 0.753 1.488 1.506 1.488 0.837 1.831 1.845 3.578 3.012 5.216l1.506 1.494 4.518 5.216h0.753l4.518 5.216c0.399 0 0.782 0.157 1.065 0.44 0.282 0.277 0.441 0.657 0.441 1.054l3.765 2.982 2.259 1.488 3.765 2.982 1.506 1.494 4.518 2.976 1.506 1.494 6.024 3.729h0.753l5.271 2.982 2.259 1.488h2.259c0.2 0 0.391 0.078 0.532 0.217 0.141 0.145 0.22 0.331 0.22 0.53l9.788 3.729h0.753l9.788 3.723h1.506l9.788 2.982h38.401l9.035-1.488h2.259l7.529-1.494h6.024c26.766-6.921 52.946-15.89 78.307-26.829 48.963-20.468 95.233-46.749 137.789-78.264 26.224-20.010 51.122-41.671 74.542-64.843h1.506l15.059 3.723 14.306 4.475 3.012 1.488 12.8 4.475 4.518 1.488 11.294 4.475h3.012l14.306 5.963h0.753l18.824 8.198 20.33 10.433 3.765 1.494 22.588 13.414 2.258 1.488 22.588 13.42 22.588 14.161 3.012 2.235 21.082 14.908 1.506 1.488 18.824 14.161c0.753 1.494 2.259 2.235 3.012 2.982l18.824 15.655 3.765 3.723 18.824 17.143c6.011 5.638 13.643 9.282 21.835 10.439l9.035 1.488c10.987 0 21.522-4.319 29.286-12.005s12.131-18.119 12.131-28.985v-120.748c45.929 50.682 158.118 162.485 263.529 162.485 45.351-0.060 89.937-11.607 129.506-33.539 36.021 20.631 76.619 32.154 118.212 33.539 79.059 0 140.047-43.231 176.194-121.495 5.096 7.276 10.632 14.246 16.565 20.872 13.559 15.727 30.419 28.341 49.399 36.966 18.986 8.626 39.641 13.053 60.53 12.975 14.017-0.054 27.961-2.060 41.412-5.963-5.12 10.921-11.168 21.39-18.071 31.304-54.965 82.733-140.8 122.982-262.782 122.982-10.981 0-21.516 4.319-29.28 12.005s-12.131 18.113-12.131 28.985c0 10.872 4.367 21.299 12.131 28.991 7.764 7.686 18.299 12.005 29.28 12.005 150.594 0 262.030-53.664 332.053-160.25 48.941-74.535 77.553-173.664 86.588-301.119 1.506-17.889 2.259-35.032 2.259-51.429zM202.527 726.606c-19.84 8.945-40.52 15.932-61.742 20.872h-21.082l-5.271-1.494h-1.506l-2.259-1.488h-3.012l-3.012-3.729h-0.753c0-0.747 0-0.747-0.753-0.747-0.718-2.156-0.974-4.439-0.753-6.704 1.838-8.963 6.6-17.083 13.554-23.106l6.024-4.475h2.259l6.776-4.469 12.8-6.71 3.765-2.235 9.035-4.469 5.271-2.235 9.036-3.729 4.518-1.494 10.541-3.723 3.012-1.494 15.059-3.729h1.506l12.8-2.976 5.271-1.494 9.788-2.235h4.518l12.8-1.494h2.259l31.624-2.982h39.906l-6.024 4.475c-36.152 24.913-75.054 45.67-115.954 61.862zM1202.441 710.21c-12.896-12.119-23.365-26.528-30.871-42.484-19.576-43.231-18.824-98.387 3.012-131.927 4.084-7.309 10.089-13.386 17.378-17.586 7.294-4.2 15.601-6.365 24.034-6.266 18.824 0 33.129 5.218 41.412 14.907s12.8 30.559 12.8 43.975c0 58.135-28.612 105.841-67.765 139.38z"></path>
</svg>
