
<svg version="1.1" xmlns="http://www.w3.org/2000/svg" width="780" height="1024" viewBox="0 0 780 1024">
<title></title>
<g id="icomoon-ignore">
</g>
<path d="M386.018 566.686l-82.025 268.371h438.738c3.486 0.010 6.924 0.805 10.045 2.321 3.116 1.516 5.827 3.721 7.919 6.427 2.092 2.711 3.501 5.851 4.125 9.182 0.624 3.326 0.439 6.749-0.536 10.001l-38.151 127.434c-1.819 6.085-5.632 11.435-10.864 15.238-5.227 3.803-11.591 5.856-18.13 5.847h-670.122l113.308-371.024-125.326 36.991 27.659-86.743 125.517-36.991 159.089-521.208c1.749-6.108 5.511-11.493 10.712-15.333s11.555-5.925 18.092-5.937h169.774c3.482-0.012 6.919 0.76 10.045 2.256s5.847 3.674 7.953 6.363c2.111 2.689 3.545 5.816 4.194 9.135s0.497 6.738-0.449 9.99l-133.527 440.751 125.325-36.991-26.897 88.222-126.469 35.699z"></path>
</svg>
