
<svg version="1.1" xmlns="http://www.w3.org/2000/svg" width="935" height="1024" viewBox="0 0 935 1024">
<title></title>
<g id="icomoon-ignore">
</g>
<path d="M809.801 613.064c-35.021-20.507-74.463-26.45-113.526-27.835-32.777-1.162-81.675-22.461-81.675-82.931 0-45.052 36.014-81.31 81.693-82.928 39.059-1.383 78.496-7.335 113.508-27.836 86.947-50.911 125.302-157.784 90.962-253.465s-131.459-152.545-230.333-134.862c-98.869 17.683-170.95 104.809-170.95 206.631 0 40.651 14.256 78.060 32.447 112.756 15.302 29.182 23.040 83.344-29.433 114.066-39.032 22.856-87.745 8.383-112.077-31.11-20.553-33.357-45.364-64.612-80.1-84.955-86.946-50.91-197.383-31.161-261.917 46.837s-64.534 191.728 0 269.731c64.534 77.998 174.971 97.747 261.917 46.837 34.727-20.338 59.54-51.57 80.080-84.907 16.867-27.376 58.992-62.273 112.097-31.152 38.974 22.835 51.022 72.873 29.416 114.087-18.187 34.691-32.425 72.090-32.425 112.733 0 101.821 72.081 188.941 170.955 206.625 98.869 17.68 195.985-39.188 230.32-134.865 34.34-95.677-4.016-202.547-90.958-253.458z"></path>
</svg>
