
<svg version="1.1" xmlns="http://www.w3.org/2000/svg" width="1257" height="1024" viewBox="0 0 1257 1024">
<title></title>
<g id="icomoon-ignore">
</g>
<path d="M1035.962 143.075l-145.641 72.181-695.857 348.874c-4.046-16.040-4.046-36.087-4.046-52.131 0-228.572 186.101-409.025 412.657-409.025 68.78 0 141.601 16.040 202.287 52.131l80.915-40.101 12.134-8.020c-222.511-164.413-538.074-112.282-699.901 112.282-60.685 84.211-97.096 188.473-97.096 292.733 0 12.032 0 24.064 0 40.104 4.046 36.091-16.183 72.178-48.548 88.222l-44.502 20.047v104.262l210.375-104.262 813.179-409.026 169.919-84.211v-112.282l-165.874 88.221zM1201.836 263.377l-1023.555 513.289-169.918 88.222v104.262l315.562-156.393 695.857-352.887c4.045 16.042 4.045 36.089 4.045 52.129 0 228.575-186.103 409.027-412.658 409.027-72.825 0-141.601-20.047-202.285-52.131l-4.046 4.012-89.005 44.111c226.56 164.413 542.119 112.282 707.993-112.282 60.686-84.215 97.094-188.477 97.094-292.738 0-12.027 0-24.059 0-40.099-4.045-36.091 16.184-72.181 48.552-88.221l44.502-20.050v-100.252h-12.139z"></path>
</svg>
