
<svg version="1.1" xmlns="http://www.w3.org/2000/svg" width="1024" height="1024" viewBox="0 0 1024 1024">
<title></title>
<g id="icomoon-ignore">
</g>
<path d="M984.8 308.48c-48-44.32-114.4-112-168.48-160l-3.2-2.24c-5.070-4.099-10.954-7.458-17.335-9.785l-0.425-0.135c-130.4-24.32-737.28-137.76-749.12-136.32-3.504 0.502-6.643 1.747-9.361 3.571l0.081-0.051-3.040 2.4c-3.641 3.696-6.484 8.188-8.243 13.19l-0.077 0.25-0.8 2.080v13.12c68.32 190.24 338.080 813.44 391.2 959.68 3.2 9.92 9.28 28.8 20.64 29.76h2.56c6.080 0 32-34.24 32-34.24s463.36-561.92 510.24-621.76c5.748-6.937 11.048-14.687 15.606-22.905l0.394-0.775c0.38-2.033 0.597-4.371 0.597-6.76 0-11.583-5.107-21.973-13.192-29.041l-0.045-0.039zM590.080 373.92l197.76-164 116 106.88zM513.28 363.2l-340.48-279.040 550.88 101.6zM544 436.32l348.48-56.16-398.4 480zM126.56 112l358.24 304-51.84 444.48z"></path>
</svg>
